<svg width="456" height="456" viewBox="0 0 456 456" fill="none" xmlns="http://www.w3.org/2000/svg">
<g clip-path="url(#clip0)">
<path d="M357.324 326.262C302.93 397.383 200.824 410.991 129.703 356.598C58.5825 302.205 44.9746 200.099 99.3679 128.978C153.761 57.857 255.867 44.249 326.988 98.6423C398.109 153.036 411.717 255.142 357.324 326.262ZM112.388 138.935C63.4835 202.879 75.7254 294.68 139.661 343.578C203.605 392.482 295.4 380.249 344.304 316.305C393.208 252.361 380.974 160.566 317.03 111.662C253.095 62.7642 161.292 74.9917 112.388 138.935Z" fill="#DBDBDB"/>
<path d="M356.898 158.455C383.156 207.427 380.201 269.368 344.303 316.305C321.837 345.681 290.314 364.133 256.609 370.766C256.69 376.309 256.777 381.844 256.866 387.394C295.45 380.519 331.689 359.78 357.323 326.262C397.135 274.207 400.512 205.559 371.58 151.163C366.676 153.578 361.783 156.013 356.898 158.455Z" fill="url(#paint0_linear)"/>
</g>
<defs>
<linearGradient id="paint0_linear" x1="250.127" y1="382.241" x2="406.455" y2="177.837" gradientUnits="userSpaceOnUse">
<stop offset="0.0871" stop-color="#6AC24B"/>
<stop offset="1" stop-color="#6AC24B"/>
</linearGradient>
<clipPath id="clip0">
<rect width="324.75" height="324.75" fill="white" transform="translate(0.725586 257.956) rotate(-52.5912)"/>
</clipPath>
</defs>
</svg>