<svg width="96" height="95" viewBox="0 0 96 95" fill="none" xmlns="http://www.w3.org/2000/svg">
<g clip-path="url(#clip0)">
<path d="M14.061 13.9105C32.8176 -4.64562 63.2089 -4.64562 81.9393 13.9105C100.67 32.4666 100.67 62.5331 81.9393 81.0892C63.1828 99.6453 32.7915 99.6453 14.061 81.0892C-4.69548 62.5331 -4.69548 32.4666 14.061 13.9105Z" fill="url(#paint0_linear)"/>
<path d="M32.1485 58.0164H68.1241L71.9998 35.0076H66.0556L51.7705 20.8712L37.4853 35.0076H28.7762L27.3614 26.6066C27.1488 25.3249 26.0279 24.3851 24.7153 24.3881H18.1816V26.158H24.7153C25.1524 26.1585 25.5253 26.4713 25.5969 26.8978L26.9623 35.0076L30.6656 56.9927L26.7248 64.7936C26.3087 65.6163 26.3528 66.5937 26.8418 67.3767C27.3304 68.1592 28.1941 68.6358 29.1238 68.6358H34.3501C34.792 71.6818 37.429 73.943 40.5384 73.943C43.6478 73.943 46.2848 71.6818 46.7267 68.6358H52.2355C52.7045 71.8516 55.6047 74.1625 58.8792 73.9296C62.1541 73.6971 64.6911 70.9999 64.6911 67.7509C64.6911 64.5019 62.1541 61.8047 58.8792 61.5722C55.6047 61.3393 52.7045 63.6502 52.2355 66.8659H46.7267C46.2848 63.82 43.6478 61.5588 40.5384 61.5588C37.429 61.5588 34.792 63.82 34.3501 66.8659H29.1238C28.8142 66.8659 28.5264 66.7069 28.3636 66.4464C28.2007 66.1854 28.1858 65.8596 28.3243 65.5856L32.1485 58.0164ZM51.7705 23.374L63.5265 35.0076H40.0144L51.7705 23.374ZM69.8873 36.7775L66.6089 56.2465H32.3533L29.0749 36.7775H69.8873ZM58.4238 63.3261C60.8931 63.3261 62.8951 65.3073 62.8951 67.7509C62.8951 70.1945 60.8931 72.1757 58.4238 72.1757C55.9545 72.1757 53.9524 70.1945 53.9524 67.7509C53.9555 65.3086 55.9554 63.3291 58.4238 63.3261ZM40.5384 63.3261C43.0077 63.3261 45.0097 65.3073 45.0097 67.7509C45.0097 70.1945 43.0077 72.1757 40.5384 72.1757C38.0691 72.1757 36.067 70.1945 36.067 67.7509C36.0701 65.3086 38.07 63.3291 40.5384 63.3261Z" fill="#3D90E0"/>
<path d="M34.2783 40.3174H64.6835V42.0873H34.2783V40.3174Z" fill="#3D90E0"/>
<path d="M36.0669 45.627H62.895V47.3969H36.0669V45.627Z" fill="#3D90E0"/>
<path d="M37.8555 50.9368H61.1065V52.7067H37.8555V50.9368Z" fill="#3D90E0"/>
<path d="M40.5383 70.4058C42.0199 70.4058 43.2211 69.2171 43.2211 67.7509C43.2211 66.2848 42.0199 65.0961 40.5383 65.0961C39.0567 65.0961 37.8555 66.2848 37.8555 67.7509C37.8555 69.2171 39.0567 70.4058 40.5383 70.4058ZM40.5383 66.866C41.0321 66.866 41.4326 67.2622 41.4326 67.7509C41.4326 68.2396 41.0321 68.6359 40.5383 68.6359C40.0444 68.6359 39.644 68.2396 39.644 67.7509C39.644 67.2622 40.0444 66.866 40.5383 66.866Z" fill="#3D90E0"/>
<path d="M58.424 70.4058C59.9056 70.4058 61.1068 69.2171 61.1068 67.7509C61.1068 66.2848 59.9056 65.0961 58.424 65.0961C56.9424 65.0961 55.7412 66.2848 55.7412 67.7509C55.7412 69.2171 56.9424 70.4058 58.424 70.4058ZM58.424 66.866C58.9179 66.866 59.3183 67.2622 59.3183 67.7509C59.3183 68.2396 58.9179 68.6359 58.424 68.6359C57.9302 68.6359 57.5297 68.2396 57.5297 67.7509C57.5297 67.2622 57.9302 66.866 58.424 66.866Z" fill="#3D90E0"/>
</g>
<defs>
<linearGradient id="paint0_linear" x1="14.0615" y1="81.0767" x2="81.2239" y2="13.1889" gradientUnits="userSpaceOnUse">
<stop offset="0.0871" stop-color="white"/>
<stop offset="1" stop-color="#D9D9D9"/>
</linearGradient>
<clipPath id="clip0">
<rect width="96" height="95" fill="white"/>
</clipPath>
</defs>
</svg>
