<svg width="38" height="40" viewBox="0 0 38 40" fill="none" xmlns="http://www.w3.org/2000/svg">
<g clip-path="url(#clip0)">
<path d="M18.9999 0C8.52314 0 0 8.79808 0 19.6128C0 30.4275 8.52314 39.2256 18.9999 39.2256C29.4767 39.2256 37.9998 30.4275 37.9998 19.6128C37.9998 8.79808 29.4767 0 18.9999 0ZM18.9999 3.76943C27.4626 3.76943 34.3482 10.8771 34.3482 19.6128C34.3482 28.3484 27.4626 35.4562 18.9999 35.4562C10.5372 35.4562 3.65163 28.3484 3.65163 19.6128C3.65163 10.8771 10.5372 3.76943 18.9999 3.76943Z" fill="#DBDBDB"/>
<path d="M34.348 19.6127C34.348 25.3929 31.3331 30.458 26.8428 33.2262C27.5925 34.2251 28.3445 35.2228 29.0988 36.2182C34.4416 32.7433 37.9997 26.5991 37.9997 19.6127C37.9997 13.0833 34.8923 7.29021 30.1247 3.72339C29.3898 4.72464 28.6538 5.72472 27.928 6.73304C31.8124 9.61076 34.348 14.3119 34.348 19.6127Z" fill="#6AC24B"/>
</g>
<defs>
<clipPath id="clip0">
<rect width="37.9998" height="39.2256" fill="white"/>
</clipPath>
</defs>
</svg>
