<svg width="618" height="453" viewBox="0 0 618 453" fill="none" xmlns="http://www.w3.org/2000/svg">
    <g clip-path="url(#clip0)">
        <path d="M528.061 277.91C546.817 259.354 577.208 259.354 595.939 277.91C614.669 296.467 614.669 326.533 595.939 345.089C577.182 363.645 546.791 363.645 528.061 345.089C509.304 326.533 509.304 296.467 528.061 277.91Z" fill="url(#paint0_linear)" />
        <path d="M546.148 322.016H582.124L586 299.007H580.056L565.77 284.871L551.485 299.007H542.776L541.361 290.606C541.149 289.325 540.028 288.385 538.715 288.388H532.182V290.158H538.715C539.152 290.158 539.525 290.471 539.597 290.898L540.962 299.007L544.666 320.993L540.725 328.793C540.309 329.616 540.353 330.594 540.842 331.377C541.33 332.159 542.194 332.636 543.124 332.636H548.35C548.792 335.682 551.429 337.943 554.538 337.943C557.648 337.943 560.285 335.682 560.727 332.636H566.236C566.704 335.851 569.605 338.162 572.879 337.929C576.154 337.697 578.691 335 578.691 331.751C578.691 328.502 576.154 325.805 572.879 325.572C569.605 325.339 566.704 327.65 566.236 330.866H560.727C560.285 327.82 557.648 325.559 554.538 325.559C551.429 325.559 548.792 327.82 548.35 330.866H543.124C542.814 330.866 542.526 330.707 542.364 330.446C542.201 330.185 542.186 329.859 542.324 329.585L546.148 322.016ZM565.77 287.374L577.527 299.007H554.014L565.77 287.374ZM583.887 300.777L580.609 320.246H546.353L543.075 300.777H583.887ZM572.424 327.326C574.893 327.326 576.895 329.307 576.895 331.751C576.895 334.194 574.893 336.176 572.424 336.176C569.954 336.176 567.952 334.194 567.952 331.751C567.955 329.309 569.955 327.329 572.424 327.326ZM554.538 327.326C557.008 327.326 559.01 329.307 559.01 331.751C559.01 334.194 557.008 336.176 554.538 336.176C552.069 336.176 550.067 334.194 550.067 331.751C550.07 329.309 552.07 327.329 554.538 327.326Z" fill="#3D90E0" />
        <path d="M548.278 304.317H578.683V306.087H548.278V304.317Z" fill="#3D90E0" />
        <path d="M550.067 309.627H576.895V311.397H550.067V309.627Z" fill="#3D90E0" />
        <path d="M551.855 314.937H575.106V316.706H551.855V314.937Z" fill="#3D90E0" />
        <path d="M554.538 334.406C556.02 334.406 557.221 333.217 557.221 331.751C557.221 330.285 556.02 329.096 554.538 329.096C553.057 329.096 551.855 330.285 551.855 331.751C551.855 333.217 553.057 334.406 554.538 334.406ZM554.538 330.866C555.032 330.866 555.433 331.262 555.433 331.751C555.433 332.24 555.032 332.636 554.538 332.636C554.044 332.636 553.644 332.24 553.644 331.751C553.644 331.262 554.044 330.866 554.538 330.866Z" fill="#3D90E0" />
        <path d="M572.424 334.406C573.906 334.406 575.107 333.217 575.107 331.751C575.107 330.285 573.906 329.096 572.424 329.096C570.942 329.096 569.741 330.285 569.741 331.751C569.741 333.217 570.942 334.406 572.424 334.406ZM572.424 330.866C572.918 330.866 573.318 331.262 573.318 331.751C573.318 332.24 572.918 332.636 572.424 332.636C571.93 332.636 571.53 332.24 571.53 331.751C571.53 331.262 571.93 330.866 572.424 330.866Z" fill="#3D90E0" />
    </g>
    <g clip-path="url(#clip1)">
        <path d="M11.2774 97.2743C26.3217 82.2341 50.698 82.2341 65.7214 97.2743C80.7448 112.315 80.7448 136.684 65.7214 151.724C50.6771 166.765 26.3007 166.765 11.2774 151.724C-3.76693 136.684 -3.76693 112.315 11.2774 97.2743Z" fill="url(#paint1_linear)" />
        <path d="M61.4037 109.556L30.5522 103.027C29.2469 102.751 27.9531 103.593 27.677 104.899L27.0908 108.665L62.6883 116.198L63.2745 112.432C63.5506 111.127 62.709 109.833 61.4037 109.556Z" fill="#3D90E0" />
        <path d="M48.4298 116.997C48.0695 115.699 46.7133 114.932 45.416 115.292L39.5593 116.918L25.7523 113.996L24.2338 121.17L14.7464 123.804C13.4491 124.164 12.6821 125.52 13.0419 126.817L18.3886 146.084C18.749 147.381 20.1052 148.149 21.4024 147.789L52.0721 139.278C53.3693 138.917 54.1363 137.562 53.7766 136.264L52.8588 132.956L56.2985 133.683C57.6038 133.96 58.8975 133.118 59.1737 131.813L61.3499 121.529L48.96 118.907L48.4298 116.997ZM51.9717 126.789L52.7302 123.205C52.8442 122.668 53.3764 122.322 53.913 122.435L57.4978 123.194C58.0351 123.308 58.3813 123.839 58.2679 124.377L57.5094 127.962C57.3955 128.498 56.8634 128.845 56.3266 128.731L52.7418 127.973C52.2041 127.858 51.8578 127.326 51.9717 126.789ZM15.2801 125.726L23.7675 123.372L43.7937 117.814L45.9486 117.216C45.988 117.205 46.0273 117.2 46.0656 117.2C46.2385 117.2 46.4451 117.314 46.5056 117.531L46.7586 118.442L47.5513 121.298L16.0108 130.051L14.9651 126.284C14.8995 126.047 15.0438 125.792 15.2801 125.726ZM51.8533 136.797C51.8936 136.943 51.8513 137.064 51.8084 137.14C51.7661 137.215 51.6845 137.314 51.5383 137.354L20.8692 145.865C20.8304 145.876 20.7906 145.882 20.7523 145.882C20.5794 145.882 20.3727 145.768 20.3123 145.55L17.1937 134.312L48.7342 125.559L50.6579 132.49L51.8533 136.797Z" fill="#3D90E0" />
        <path d="M25.8245 137.566C25.6773 137.037 25.125 136.724 24.5958 136.871L21.014 137.865C20.4854 138.012 20.1724 138.565 20.3196 139.094L21.3134 142.675C21.4606 143.204 22.013 143.517 22.5421 143.37L26.1239 142.376C26.6531 142.229 26.9655 141.676 26.8188 141.147L25.8245 137.566Z" fill="#3D90E0" />
    </g>
    <path d="M54.7891 219.896H56.0062V221.095H54.7891V219.896Z" fill="#6AC24B" />
    <path d="M30.4482 219.896H31.6653V221.095H30.4482V219.896Z" fill="#6AC24B" />
    <path d="M36.208 220.495C36.208 224.308 39.3565 227.41 43.2266 227.41C47.0966 227.41 50.2451 224.308 50.2451 220.495C50.2451 216.682 47.0966 213.58 43.2266 213.58C39.3565 213.58 36.208 216.682 36.208 220.495ZM49.028 220.495C49.028 223.647 46.4255 226.211 43.2266 226.211C40.0276 226.211 37.4251 223.647 37.4251 220.495C37.4251 217.343 40.0276 214.779 43.2266 214.779C46.4255 214.779 49.028 217.343 49.028 220.495Z" fill="#6AC24B" />
    <path d="M42.6188 215.817V216.252C41.5352 216.521 40.7305 217.488 40.7305 218.638V218.938C40.7305 220.027 41.5537 220.929 42.6188 221.074V223.462C42.2208 223.249 41.9476 222.84 41.9476 222.331H40.7305C40.7305 223.522 41.5477 224.473 42.6188 224.739V225.174H43.8359V224.739C44.9195 224.47 45.7243 223.503 45.7243 222.353V222.052C45.7243 220.964 44.901 220.062 43.8359 219.917V217.529C44.2339 217.742 44.5072 218.151 44.5072 218.66H45.7243C45.7243 217.469 44.907 216.518 43.8359 216.252V215.817H42.6188V215.817ZM42.6188 219.848C42.2297 219.723 41.9476 219.363 41.9476 218.938V218.638C41.9476 218.16 42.2194 217.743 42.6188 217.529V219.848ZM44.5072 222.052V222.353C44.5072 222.831 44.2354 223.248 43.8359 223.462V221.142C44.2251 221.267 44.5072 221.628 44.5072 222.052Z" fill="#6AC24B" />
    <path d="M22.4551 208.624V232.366H29.2294V231.167H23.6722V209.823H62.7813V231.167H30.4465V232.366H63.9984V208.624H22.4551Z" fill="#6AC24B" />
    <path d="M27.8168 229.968H58.6374L58.5735 229.311C58.4392 227.93 59.5469 226.73 60.9561 226.73H61.5646V214.26H60.9561C59.6362 214.26 58.5624 213.202 58.5624 211.901C58.5624 211.761 58.5673 211.742 58.6374 211.022H52.3326V212.221H57.3598C57.5063 213.834 58.7496 215.14 60.3475 215.408V225.582C58.7496 225.85 57.5063 227.156 57.3598 228.769H29.0944C28.948 227.156 27.7046 225.85 26.1067 225.582V215.408C27.7046 215.14 28.948 213.834 29.0944 212.221H51.1155V211.022H27.8168L27.8808 211.679C28.0151 213.06 26.9073 214.26 25.4982 214.26H24.8896V226.73H25.4982C26.8181 226.73 27.8918 227.788 27.8918 229.089C27.8918 229.229 27.8869 229.248 27.8168 229.968Z" fill="#6AC24B" />
    <path d="M52.592 202.756L52.3038 202.16L45.2861 206.311L45.9126 207.339L51.8346 203.836C52.8081 205.156 54.5612 205.634 56.0612 205.055L57.3272 207.133L58.3707 206.516L56.5045 203.453L55.9827 203.761C54.7629 204.483 53.1919 203.999 52.592 202.756Z" fill="#6AC24B" />
    <path d="M61.2097 206.516L55.6476 197.386L40.5557 206.311L41.182 207.339L55.2304 199.032L60.1662 207.134L61.2097 206.516Z" fill="#6AC24B" />
    <rect x="585.853" y="215.847" width="3.78169" height="22.0598" rx="1.89084" transform="rotate(90 585.853 215.847)" fill="#6AC24B" />
    <rect x="585.853" y="215.847" width="3.78169" height="22.0598" rx="1.89084" transform="rotate(90 585.853 215.847)" fill="#6AC24B" />
    <rect x="585.853" y="215.847" width="3.78169" height="22.0598" rx="1.89084" transform="rotate(90 585.853 215.847)" fill="#6AC24B" />
    <rect x="585.853" y="215.847" width="3.78169" height="22.0598" rx="1.89084" transform="rotate(90 585.853 215.847)" fill="#6AC24B" />
    <rect x="572.932" y="206.708" width="3.78169" height="22.0598" rx="1.89084" fill="#6AC24B" />
    <rect x="572.932" y="206.708" width="3.78169" height="22.0598" rx="1.89084" fill="#6AC24B" />
    <rect x="572.932" y="206.708" width="3.78169" height="22.0598" rx="1.89084" fill="#6AC24B" />
    <rect x="572.932" y="206.708" width="3.78169" height="22.0598" rx="1.89084" fill="#6AC24B" />
    <rect x="125.847" y="258.938" width="3.78169" height="22.0598" rx="1.89084" transform="rotate(90 125.847 258.938)" fill="#6AC24B" />
    <rect x="125.847" y="258.938" width="3.78169" height="22.0598" rx="1.89084" transform="rotate(90 125.847 258.938)" fill="#6AC24B" />
    <rect x="125.847" y="258.938" width="3.78169" height="22.0598" rx="1.89084" transform="rotate(90 125.847 258.938)" fill="#6AC24B" />
    <rect x="125.847" y="258.938" width="3.78169" height="22.0598" rx="1.89084" transform="rotate(90 125.847 258.938)" fill="#6AC24B" />
    <rect x="112.926" y="249.799" width="3.78169" height="22.0598" rx="1.89084" fill="#6AC24B" />
    <rect x="112.926" y="249.799" width="3.78169" height="22.0598" rx="1.89084" fill="#6AC24B" />
    <rect x="112.926" y="249.799" width="3.78169" height="22.0598" rx="1.89084" fill="#6AC24B" />
    <rect x="112.926" y="249.799" width="3.78169" height="22.0598" rx="1.89084" fill="#6AC24B" />
    <circle cx="107" cy="152" r="7" fill="#C4C4C4" />
    <ellipse cx="614" cy="175.5" rx="4" ry="3.5" fill="#C4C4C4" />
    <g clip-path="url(#clip2)">
        <path d="M454.715 324.539C400.609 395.285 299.042 408.821 228.297 354.715C157.551 300.609 144.015 199.042 198.121 128.297C252.227 57.5514 353.794 44.0153 424.539 98.1213C495.285 152.227 508.821 253.794 454.715 324.539ZM211.072 138.202C162.427 201.808 174.604 293.124 238.202 341.763C301.808 390.409 393.118 378.24 441.763 314.634C490.409 251.028 478.24 159.718 414.634 111.072C351.036 62.4327 259.718 74.5956 211.072 138.202Z" fill="#DBDBDB" />
    </g>
    <path d="M326.232 351C395.268 351 451.232 295.036 451.232 226C451.232 156.964 395.268 101 326.232 101C257.197 101 201.232 156.964 201.232 226C201.232 295.036 257.197 351 326.232 351Z" fill="#49B059" />
    <path d="M276.862 145.251L375.025 145.946C375.025 145.946 395.762 148.022 406.825 160.46C417.888 172.898 417.193 181.544 417.193 181.544H358.434L344.955 168.412L342.191 181.204H314.537C314.537 181.204 294.488 179.127 284.814 167.724C275.14 156.321 276.862 145.251 276.862 145.251Z" fill="white" />
    <path d="M362.926 184.648L377.788 199.51L357.398 216.101H411.651C411.651 216.101 415.449 211.608 417.179 199.163C418.479 189.815 417.533 184.301 417.533 184.301L362.926 184.648Z" fill="white" />
    <path d="M263.157 251.291C263.157 251.291 275.623 231.344 296.816 223.862C318.009 216.38 334.463 219.621 334.463 219.621L332.537 234.333L352.416 219.621H409.766C409.766 219.621 403.529 232.338 386.578 241.311C369.619 250.284 359.898 251.468 353.913 251.468C347.929 251.475 263.157 251.291 263.157 251.291Z" fill="white" />
    <path d="M260.658 255.28C260.658 255.28 256.172 266.752 253.673 282.955C251.182 299.164 250.93 307.143 250.93 307.143H298.054C298.054 307.143 297.557 294.426 301.546 280.715C305.536 267.004 322.494 255.035 322.494 255.035L260.658 255.28Z" fill="white" />
    <defs>
        <linearGradient id="paint0_linear" x1="528.061" y1="345.077" x2="595.223" y2="277.189" gradientUnits="userSpaceOnUse">
            <stop offset="0.0871" stop-color="white" />
            <stop offset="1" stop-color="#D9D9D9" />
        </linearGradient>
        <linearGradient id="paint1_linear" x1="11.2777" y1="151.714" x2="65.7178" y2="97.2595" gradientUnits="userSpaceOnUse">
            <stop offset="0.0871" stop-color="white" />
            <stop offset="1" stop-color="#D9D9D9" />
        </linearGradient>
        <clipPath id="clip0">
            <rect width="96" height="95" fill="white" transform="translate(514 264)" />
        </clipPath>
        <clipPath id="clip1">
            <rect width="77" height="77" fill="white" transform="translate(0 86)" />
        </clipPath>
        <clipPath id="clip2">
            <rect width="323.034" height="323.034" fill="white" transform="translate(100 256.593) rotate(-52.5912)" />
        </clipPath>
    </defs>
</svg>
