<svg width="618" height="453" viewBox="0 0 618 453" fill="none" xmlns="http://www.w3.org/2000/svg">
    <g clip-path="url(#clip0)">
        <path d="M528.061 282.911C546.817 264.355 577.208 264.355 595.939 282.911C614.669 301.467 614.669 331.533 595.939 350.089C577.182 368.646 546.791 368.646 528.061 350.089C509.304 331.533 509.304 301.467 528.061 282.911Z" fill="url(#paint0_linear)" />
        <path d="M546.148 327.016H582.124L586 304.007H580.056L565.77 289.871L551.485 304.007H542.776L541.361 295.606C541.149 294.325 540.028 293.385 538.715 293.388H532.182V295.158H538.715C539.152 295.158 539.525 295.471 539.597 295.898L540.962 304.007L544.666 325.993L540.725 333.793C540.309 334.616 540.353 335.594 540.842 336.377C541.33 337.159 542.194 337.636 543.124 337.636H548.35C548.792 340.682 551.429 342.943 554.538 342.943C557.648 342.943 560.285 340.682 560.727 337.636H566.236C566.704 340.851 569.605 343.162 572.879 342.929C576.154 342.697 578.691 340 578.691 336.751C578.691 333.502 576.154 330.805 572.879 330.572C569.605 330.339 566.704 332.65 566.236 335.866H560.727C560.285 332.82 557.648 330.559 554.538 330.559C551.429 330.559 548.792 332.82 548.35 335.866H543.124C542.814 335.866 542.526 335.707 542.364 335.446C542.201 335.185 542.186 334.859 542.324 334.585L546.148 327.016ZM565.77 292.374L577.527 304.007H554.014L565.77 292.374ZM583.887 305.777L580.609 325.246H546.353L543.075 305.777H583.887ZM572.424 332.326C574.893 332.326 576.895 334.307 576.895 336.751C576.895 339.194 574.893 341.176 572.424 341.176C569.954 341.176 567.952 339.194 567.952 336.751C567.955 334.309 569.955 332.329 572.424 332.326ZM554.538 332.326C557.008 332.326 559.01 334.307 559.01 336.751C559.01 339.194 557.008 341.176 554.538 341.176C552.069 341.176 550.067 339.194 550.067 336.751C550.07 334.309 552.07 332.329 554.538 332.326Z" fill="#3D90E0" />
        <path d="M548.278 309.317H578.683V311.087H548.278V309.317Z" fill="#3D90E0" />
        <path d="M550.067 314.627H576.895V316.397H550.067V314.627Z" fill="#3D90E0" />
        <path d="M551.855 319.937H575.106V321.706H551.855V319.937Z" fill="#3D90E0" />
        <path d="M554.538 339.405C556.02 339.405 557.221 338.217 557.221 336.751C557.221 335.284 556.02 334.096 554.538 334.096C553.057 334.096 551.855 335.284 551.855 336.751C551.855 338.217 553.057 339.405 554.538 339.405ZM554.538 335.866C555.032 335.866 555.433 336.262 555.433 336.751C555.433 337.239 555.032 337.636 554.538 337.636C554.044 337.636 553.644 337.239 553.644 336.751C553.644 336.262 554.044 335.866 554.538 335.866Z" fill="#3D90E0" />
        <path d="M572.424 339.405C573.906 339.405 575.107 338.217 575.107 336.751C575.107 335.284 573.906 334.096 572.424 334.096C570.942 334.096 569.741 335.284 569.741 336.751C569.741 338.217 570.942 339.405 572.424 339.405ZM572.424 335.866C572.918 335.866 573.318 336.262 573.318 336.751C573.318 337.239 572.918 337.636 572.424 337.636C571.93 337.636 571.53 337.239 571.53 336.751C571.53 336.262 571.93 335.866 572.424 335.866Z" fill="#3D90E0" />
    </g>
    <g clip-path="url(#clip1)">
        <path d="M11.2774 102.274C26.3217 87.2341 50.698 87.2341 65.7214 102.274C80.7448 117.315 80.7448 141.684 65.7214 156.724C50.6771 171.765 26.3007 171.765 11.2774 156.724C-3.76693 141.684 -3.76693 117.315 11.2774 102.274Z" fill="url(#paint1_linear)" />
        <path d="M61.4037 114.556L30.5522 108.027C29.2469 107.751 27.9531 108.593 27.677 109.898L27.0908 113.665L62.6883 121.198L63.2745 117.431C63.5506 116.127 62.709 114.832 61.4037 114.556Z" fill="#3D90E0" />
        <path d="M48.4298 121.997C48.0695 120.699 46.7133 119.932 45.416 120.292L39.5593 121.918L25.7523 118.996L24.2338 126.17L14.7464 128.804C13.4491 129.163 12.6821 130.52 13.0419 131.817L18.3886 151.084C18.749 152.381 20.1052 153.149 21.4024 152.788L52.0721 144.277C53.3693 143.917 54.1363 142.561 53.7766 141.263L52.8588 137.956L56.2985 138.683C57.6038 138.96 58.8975 138.118 59.1737 136.812L61.3499 126.529L48.96 123.907L48.4298 121.997ZM51.9717 131.789L52.7302 128.204C52.8442 127.668 53.3764 127.321 53.913 127.435L57.4978 128.194C58.0351 128.308 58.3813 128.839 58.2679 129.376L57.5094 132.961C57.3955 133.498 56.8634 133.845 56.3266 133.731L52.7418 132.972C52.2041 132.858 51.8578 132.326 51.9717 131.789ZM15.2801 130.726L23.7675 128.372L43.7937 122.814L45.9486 122.216C45.988 122.205 46.0273 122.2 46.0656 122.2C46.2385 122.2 46.4451 122.313 46.5056 122.531L46.7586 123.442L47.5513 126.298L16.0108 135.051L14.9651 131.284C14.8995 131.047 15.0438 130.792 15.2801 130.726ZM51.8533 141.797C51.8936 141.943 51.8513 142.064 51.8084 142.139C51.7661 142.215 51.6845 142.314 51.5383 142.354L20.8692 150.865C20.8304 150.876 20.7906 150.881 20.7523 150.881C20.5794 150.881 20.3727 150.767 20.3123 150.55L17.1937 139.312L48.7342 130.559L50.6579 137.49L51.8533 141.797Z" fill="#3D90E0" />
        <path d="M25.8245 142.566C25.6773 142.036 25.125 141.724 24.5958 141.871L21.014 142.865C20.4854 143.012 20.1724 143.565 20.3196 144.094L21.3134 147.675C21.4606 148.204 22.013 148.517 22.5421 148.369L26.1239 147.376C26.6531 147.229 26.9655 146.676 26.8188 146.147L25.8245 142.566Z" fill="#3D90E0" />
    </g>
    <path d="M54.7891 224.896H56.0062V226.095H54.7891V224.896Z" fill="#6AC24B" />
    <path d="M30.4482 224.896H31.6653V226.095H30.4482V224.896Z" fill="#6AC24B" />
    <path d="M36.208 225.495C36.208 229.308 39.3565 232.41 43.2266 232.41C47.0966 232.41 50.2451 229.308 50.2451 225.495C50.2451 221.682 47.0966 218.58 43.2266 218.58C39.3565 218.58 36.208 221.682 36.208 225.495ZM49.028 225.495C49.028 228.647 46.4255 231.211 43.2266 231.211C40.0276 231.211 37.4251 228.647 37.4251 225.495C37.4251 222.343 40.0276 219.779 43.2266 219.779C46.4255 219.779 49.028 222.343 49.028 225.495Z" fill="#6AC24B" />
    <path d="M42.6188 220.817V221.252C41.5352 221.52 40.7305 222.488 40.7305 223.638V223.938C40.7305 225.027 41.5537 225.929 42.6188 226.074V228.462C42.2208 228.249 41.9476 227.84 41.9476 227.331H40.7305C40.7305 228.522 41.5477 229.473 42.6188 229.738V230.173H43.8359V229.738C44.9195 229.47 45.7243 228.502 45.7243 227.353V227.052C45.7243 225.964 44.901 225.061 43.8359 224.917V222.529C44.2339 222.742 44.5072 223.151 44.5072 223.659H45.7243C45.7243 222.468 44.907 221.517 43.8359 221.252V220.817H42.6188V220.817ZM42.6188 224.848C42.2297 224.723 41.9476 224.363 41.9476 223.938V223.638C41.9476 223.159 42.2194 222.742 42.6188 222.529V224.848ZM44.5072 227.052V227.353C44.5072 227.831 44.2354 228.248 43.8359 228.462V226.142C44.2251 226.267 44.5072 226.628 44.5072 227.052Z" fill="#6AC24B" />
    <path d="M22.4551 213.624V237.366H29.2294V236.167H23.6722V214.823H62.7813V236.167H30.4465V237.366H63.9984V213.624H22.4551Z" fill="#6AC24B" />
    <path d="M27.8168 234.968H58.6374L58.5735 234.311C58.4392 232.93 59.5469 231.73 60.9561 231.73H61.5646V219.26H60.9561C59.6362 219.26 58.5624 218.202 58.5624 216.901C58.5624 216.761 58.5673 216.742 58.6374 216.022H52.3326V217.221H57.3598C57.5063 218.834 58.7496 220.14 60.3475 220.408V230.582C58.7496 230.85 57.5063 232.156 57.3598 233.769H29.0944C28.948 232.156 27.7046 230.85 26.1067 230.582V220.408C27.7046 220.14 28.948 218.834 29.0944 217.221H51.1155V216.022H27.8168L27.8808 216.679C28.0151 218.06 26.9073 219.26 25.4982 219.26H24.8896V231.73H25.4982C26.8181 231.73 27.8918 232.788 27.8918 234.089C27.8918 234.229 27.8869 234.248 27.8168 234.968Z" fill="#6AC24B" />
    <path d="M52.592 207.756L52.3038 207.16L45.2861 211.311L45.9126 212.339L51.8346 208.836C52.8081 210.156 54.5612 210.634 56.0612 210.055L57.3272 212.133L58.3707 211.516L56.5045 208.453L55.9827 208.761C54.7629 209.483 53.1919 208.999 52.592 207.756Z" fill="#6AC24B" />
    <path d="M61.2097 211.516L55.6476 202.386L40.5557 211.311L41.182 212.339L55.2304 204.032L60.1662 212.134L61.2097 211.516Z" fill="#6AC24B" />
    <rect x="585.853" y="220.847" width="3.78169" height="22.0598" rx="1.89084" transform="rotate(90 585.853 220.847)" fill="#6AC24B" />
    <rect x="585.853" y="220.847" width="3.78169" height="22.0598" rx="1.89084" transform="rotate(90 585.853 220.847)" fill="#6AC24B" />
    <rect x="585.853" y="220.847" width="3.78169" height="22.0598" rx="1.89084" transform="rotate(90 585.853 220.847)" fill="#6AC24B" />
    <rect x="585.853" y="220.847" width="3.78169" height="22.0598" rx="1.89084" transform="rotate(90 585.853 220.847)" fill="#6AC24B" />
    <rect x="572.932" y="211.708" width="3.78169" height="22.0598" rx="1.89084" fill="#6AC24B" />
    <rect x="572.932" y="211.708" width="3.78169" height="22.0598" rx="1.89084" fill="#6AC24B" />
    <rect x="572.932" y="211.708" width="3.78169" height="22.0598" rx="1.89084" fill="#6AC24B" />
    <rect x="572.932" y="211.708" width="3.78169" height="22.0598" rx="1.89084" fill="#6AC24B" />
    <rect x="125.847" y="263.938" width="3.78169" height="22.0598" rx="1.89084" transform="rotate(90 125.847 263.938)" fill="#6AC24B" />
    <rect x="125.847" y="263.938" width="3.78169" height="22.0598" rx="1.89084" transform="rotate(90 125.847 263.938)" fill="#6AC24B" />
    <rect x="125.847" y="263.938" width="3.78169" height="22.0598" rx="1.89084" transform="rotate(90 125.847 263.938)" fill="#6AC24B" />
    <rect x="125.847" y="263.938" width="3.78169" height="22.0598" rx="1.89084" transform="rotate(90 125.847 263.938)" fill="#6AC24B" />
    <rect x="112.926" y="254.799" width="3.78169" height="22.0598" rx="1.89084" fill="#6AC24B" />
    <rect x="112.926" y="254.799" width="3.78169" height="22.0598" rx="1.89084" fill="#6AC24B" />
    <rect x="112.926" y="254.799" width="3.78169" height="22.0598" rx="1.89084" fill="#6AC24B" />
    <rect x="112.926" y="254.799" width="3.78169" height="22.0598" rx="1.89084" fill="#6AC24B" />
    <circle cx="107" cy="157" r="7" fill="#C4C4C4" />
    <ellipse cx="614" cy="180.5" rx="4" ry="3.5" fill="#C4C4C4" />
    <g clip-path="url(#clip2)">
        <path d="M442.715 324.539C388.609 395.285 287.042 408.821 216.297 354.715C145.551 300.609 132.015 199.042 186.121 128.297C240.227 57.5514 341.794 44.0153 412.539 98.1213C483.285 152.227 496.821 253.794 442.715 324.539ZM199.072 138.202C150.427 201.808 162.604 293.124 226.202 341.763C289.808 390.409 381.118 378.24 429.763 314.634C478.409 251.028 466.24 159.718 402.634 111.072C339.036 62.4327 247.718 74.5956 199.072 138.202Z" fill="#DBDBDB" />
    </g>
    <path d="M314.232 351C383.268 351 439.232 295.036 439.232 226C439.232 156.964 383.268 101 314.232 101C245.197 101 189.232 156.964 189.232 226C189.232 295.036 245.197 351 314.232 351Z" fill="#3B89D2" />
    <path d="M264.862 145.251L363.025 145.945C363.025 145.945 383.762 148.022 394.825 160.46C405.888 172.898 405.193 181.544 405.193 181.544H346.434L332.955 168.411L330.191 181.204H302.537C302.537 181.204 282.488 179.127 272.814 167.724C263.14 156.321 264.862 145.251 264.862 145.251Z" fill="white" />
    <path d="M350.926 184.648L365.788 199.51L345.398 216.101H399.651C399.651 216.101 403.449 211.607 405.179 199.162C406.479 189.815 405.533 184.301 405.533 184.301L350.926 184.648Z" fill="white" />
    <path d="M251.157 251.291C251.157 251.291 263.623 231.344 284.816 223.862C306.009 216.38 322.463 219.621 322.463 219.621L320.537 234.332L340.416 219.621H397.766C397.766 219.621 391.529 232.338 374.578 241.311C357.619 250.283 347.898 251.468 341.913 251.468C335.929 251.475 251.157 251.291 251.157 251.291Z" fill="white" />
    <path d="M248.658 255.28C248.658 255.28 244.172 266.752 241.673 282.954C239.182 299.164 238.93 307.143 238.93 307.143H286.054C286.054 307.143 285.557 294.426 289.546 280.715C293.536 267.003 310.494 255.035 310.494 255.035L248.658 255.28Z" fill="white" />
    <defs>
        <linearGradient id="paint0_linear" x1="528.061" y1="350.077" x2="595.223" y2="282.189" gradientUnits="userSpaceOnUse">
            <stop offset="0.0871" stop-color="white" />
            <stop offset="1" stop-color="#D9D9D9" />
        </linearGradient>
        <linearGradient id="paint1_linear" x1="11.2777" y1="156.714" x2="65.7178" y2="102.259" gradientUnits="userSpaceOnUse">
            <stop offset="0.0871" stop-color="white" />
            <stop offset="1" stop-color="#D9D9D9" />
        </linearGradient>
        <clipPath id="clip0">
            <rect width="96" height="95" fill="white" transform="translate(514 269)" />
        </clipPath>
        <clipPath id="clip1">
            <rect width="77" height="77" fill="white" transform="translate(0 91)" />
        </clipPath>
        <clipPath id="clip2">
            <rect width="323.034" height="323.034" fill="white" transform="translate(88 256.593) rotate(-52.5912)" />
        </clipPath>
    </defs>
</svg>
