<svg width="240" height="49" viewBox="0 0 240 49" fill="none" xmlns="http://www.w3.org/2000/svg">
    <path d="M196.673 14.3071L191.946 19.4994H188.306L191.72 14.3071H196.673Z" fill="#35A96A"/>
    <path d="M8.50488 0H37.3729C51.7787 0 54.0504 10.6809 54.0504 10.6809H35.186L30.6709 6.51859L29.6127 10.7514H22.8966C15.1222 10.6809 8.50488 6.73023 8.50488 1.28397" fill="#35A96A"/>
    <path d="M36.329 11.7391H54.0505C54.0505 18.8927 52.0893 21.3618 52.0893 21.3618H34.6641L41.5213 16.5505L36.329 11.7391Z" fill="#35A96A"/>
    <path d="M51.6383 22.5188H33.296L26.6081 27.189L27.37 22.5188H21.0066C10.7067 22.5188 4.0752 31.9863 4.0752 31.9863H32.3224C46.2062 31.9863 51.6383 22.5188 51.6383 22.5188Z" fill="#1D8FCA"/>
    <path d="M3.34125 33.1714H23.2498C23.2498 33.1714 19.0169 34.3566 16.3925 40.9176C15.6356 43.5217 15.2508 46.2198 15.2497 48.9318H0.0396236C-0.0132079 48.5054 -0.0132079 48.0742 0.0396236 47.6478C0.218379 42.6574 1.33857 37.7458 3.34125 33.1714Z" fill="#1D8FCA"/>
    <path d="M74.411 27.2737C75.0653 27.3649 75.7259 27.4027 76.3863 27.3866C77.1112 27.3833 77.8323 27.2836 78.531 27.0903C79.2625 26.8939 79.9513 26.5639 80.5627 26.1167C81.1922 25.6269 81.7074 25.0058 82.0724 24.2966C82.496 23.418 82.6994 22.4495 82.665 21.4747C82.6852 20.8657 82.5441 20.2621 82.2559 19.7251C81.9856 19.2803 81.607 18.9114 81.1553 18.6528C80.6808 18.3905 80.1657 18.2093 79.6315 18.1167C79.0958 18.0219 78.5529 17.9747 78.0089 17.9756H77.3458C77.1482 17.9756 76.8237 17.9756 76.3863 18.0461L74.411 27.2737ZM70.8413 13.8838L72.6473 13.7427L74.2981 13.6157C74.8343 13.6157 75.3845 13.5452 75.9207 13.5311H77.6421C78.9643 13.5356 80.2846 13.6347 81.5927 13.8274C82.9023 13.9971 84.1779 14.3684 85.3741 14.9279C86.4858 15.4567 87.4538 16.2456 88.196 17.2278C88.9845 18.3532 89.3811 19.7066 89.3247 21.0797C89.3423 22.5515 89.0175 24.0072 88.3759 25.3319C87.7344 26.6567 86.7937 27.8141 85.628 28.7129C84.3209 29.729 82.8314 30.4857 81.24 30.9422C79.3254 31.5039 77.3373 31.775 75.3422 31.7464H74.1993C73.9171 31.7464 73.635 31.7464 73.3669 31.7464L71.6032 40.1134C71.0247 40.198 70.4744 40.2404 69.9383 40.2686H68.4003H66.9894C66.4391 40.2686 65.8606 40.198 65.2539 40.1134L70.8413 13.8838Z" fill="#1D8FCA"/>
    <path d="M103.208 25.1714H102.432H101.713C100.463 25.1309 99.2245 25.4282 98.129 26.0321C97.1778 26.5912 96.3479 27.3348 95.6881 28.2191C95.0509 29.0666 94.5728 30.0227 94.2771 31.041C94.0206 31.884 93.8736 32.7566 93.8398 33.6371C93.8398 35.429 94.5593 36.3179 95.9985 36.3179C96.7669 36.2804 97.517 36.0707 98.1935 35.7044C98.8699 35.3381 99.4555 34.8245 99.9068 34.2015C101.263 32.4586 102.169 30.4089 102.545 28.2332L103.208 25.1714ZM107.738 31.9299C107.413 33.4537 107.173 34.7518 107.032 35.9652C106.9 36.872 106.825 37.7862 106.806 38.7024V39.3797C106.793 39.577 106.793 39.775 106.806 39.9723C105.873 40.122 104.93 40.1975 103.984 40.1981C103.072 40.1932 102.162 40.1177 101.261 39.9723C101.261 39.7889 101.134 39.549 101.078 39.2809C101.011 38.8896 100.983 38.4926 100.993 38.0957V37.4044C100.997 37.1249 101.025 36.8464 101.078 36.5719C100.192 37.7168 99.0895 38.6757 97.8327 39.3938C96.4183 40.1613 94.8278 40.5456 93.2189 40.5085C92.438 40.5586 91.6551 40.4493 90.9177 40.1873C90.1803 39.9254 89.5039 39.5162 88.9296 38.9846C87.9519 37.8801 87.4454 36.4367 87.5187 34.9634C87.5131 33.1626 87.8482 31.3769 88.5064 29.7006C89.1304 28.0087 90.1012 26.466 91.3565 25.1714C92.754 23.8133 94.4091 22.7483 96.2243 22.0391C98.4019 21.2295 100.717 20.8555 103.039 20.9386C105.365 20.9336 107.683 21.218 109.939 21.7852L107.738 31.9299Z" fill="#1D8FCA"/>
    <path d="M125.614 25.1714C125.362 25.13 125.108 25.1018 124.853 25.0867H124.204C122.944 25.046 121.697 25.3431 120.592 25.9474C119.642 26.4974 118.812 27.2313 118.151 28.1062C117.517 28.956 117.039 29.9114 116.74 30.9281C116.447 31.8025 116.285 32.7154 116.26 33.6371C116.213 34.3522 116.407 35.0623 116.81 35.6548C117.008 35.8971 117.261 36.0879 117.549 36.2108C117.836 36.3336 118.149 36.3849 118.461 36.3602C119.229 36.3217 119.979 36.1116 120.655 35.7454C121.332 35.3791 121.917 34.866 122.369 34.2438C123.72 32.4977 124.625 30.4494 125.008 28.2755L125.614 25.1714ZM123.639 36.5578C122.746 37.7166 121.621 38.6774 120.338 39.3797C118.913 40.163 117.307 40.5571 115.681 40.5225C114.886 40.5826 114.086 40.4769 113.333 40.2122C112.58 39.9475 111.891 39.5295 111.307 38.9846C110.323 37.873 109.816 36.4181 109.897 34.9352C109.89 33.1434 110.226 31.3669 110.884 29.7006C111.524 28.0065 112.509 26.4641 113.777 25.1714C115.175 23.8071 116.836 22.7414 118.659 22.0391C120.829 21.2383 123.133 20.8646 125.445 20.9386C127.823 20.9251 130.193 21.2095 132.5 21.7851L128.69 39.676C128.381 41.4025 127.633 43.0205 126.517 44.3744C125.513 45.5511 124.279 46.5112 122.891 47.1963C121.514 47.8875 120.039 48.3634 118.517 48.6073C117.043 48.8445 115.552 48.9671 114.059 48.9741C112.841 48.991 111.625 48.9155 110.419 48.7484C109.648 48.6552 108.884 48.509 108.133 48.311C108.133 47.9018 108.133 47.535 108.232 47.1963C108.276 46.8631 108.342 46.5332 108.429 46.2087C108.53 45.8877 108.648 45.5722 108.782 45.2633C108.962 44.9002 109.17 44.5511 109.403 44.2192C110.031 44.3686 110.667 44.4817 111.307 44.5579C112.177 44.6751 113.054 44.7316 113.932 44.7272C114.791 44.7247 115.648 44.6681 116.5 44.5579C117.398 44.4511 118.274 44.2035 119.096 43.8242C119.966 43.4095 120.743 42.8241 121.382 42.1028C122.142 41.1707 122.687 40.0817 122.976 38.9141L123.639 36.5578Z" fill="#1D8FCA"/>
    <path d="M141.501 36.6001C142.514 36.6343 143.508 36.3261 144.323 35.7253C145.075 35.1626 145.704 34.452 146.172 33.6371C146.657 32.7883 147.009 31.8698 147.216 30.914C147.402 30.0608 147.501 29.191 147.512 28.3178C147.58 27.8686 147.542 27.4098 147.402 26.9778C147.261 26.5458 147.022 26.1525 146.702 25.8292C146.383 25.5059 145.993 25.2616 145.563 25.1155C145.133 24.9695 144.674 24.9258 144.224 24.988C143.206 24.9392 142.204 25.2599 141.403 25.891C140.717 26.4816 140.148 27.1945 139.723 27.9933C139.258 28.8555 138.925 29.7831 138.736 30.7447C138.556 31.5938 138.462 32.4588 138.454 33.3267C138.454 35.4713 139.484 36.5578 141.572 36.5578L141.501 36.6001ZM140.993 40.4661C138.606 40.668 136.23 39.9683 134.334 38.5049C133.615 37.8162 133.053 36.981 132.685 36.0559C132.317 35.1308 132.153 34.1375 132.203 33.1433C132.213 31.6507 132.48 30.171 132.993 28.7693C133.527 27.3148 134.332 25.9743 135.364 24.8187C136.485 23.6178 137.839 22.6577 139.343 21.9968C141.121 21.2203 143.046 20.8399 144.986 20.8821C147.389 20.6822 149.778 21.3979 151.674 22.8857C152.395 23.5823 152.959 24.4246 153.329 25.3564C153.699 26.2883 153.866 27.2882 153.819 28.2896C153.812 29.7996 153.55 31.2976 153.043 32.72C152.509 34.219 151.669 35.5904 150.576 36.7467C149.482 37.903 148.16 38.819 146.694 39.4361C144.908 40.1855 142.985 40.5509 141.05 40.5084" fill="#1D8FCA"/>
    <path d="M161.185 14.3071H178.497C178.49 14.4057 178.49 14.5047 178.497 14.6034C178.504 14.6973 178.504 14.7916 178.497 14.8856C178.495 15.5334 178.41 16.1784 178.243 16.8044C178.054 17.4932 177.804 18.1638 177.495 18.808H166.589L165.319 24.9315H173.982C173.983 25.6912 173.898 26.4487 173.728 27.189C173.553 27.97 173.313 28.7347 173.008 29.4748H164.345L162.017 40.3814C160.941 40.5258 159.857 40.6012 158.772 40.6072C157.714 40.6098 156.658 40.5343 155.611 40.3814L161.185 14.3071Z" fill="#35A96A"/>
    <path d="M190.518 25.51L189.756 25.4254H189.036C187.786 25.3827 186.547 25.6801 185.452 26.286C184.501 26.8452 183.671 27.5887 183.011 28.473C182.374 29.3205 181.896 30.2767 181.601 31.2949C181.325 32.1817 181.177 33.1035 181.163 34.0322C181.163 35.8241 181.883 36.713 183.322 36.713C184.09 36.6744 184.84 36.4643 185.516 36.0981C186.192 35.7318 186.778 35.2188 187.23 34.5965C188.58 32.8504 189.486 30.8021 189.869 28.6282L190.518 25.51ZM195.005 32.2261C194.68 33.75 194.454 35.048 194.299 36.2615C194.177 37.1692 194.107 38.083 194.087 38.9987V39.676C194.074 39.8733 194.074 40.0712 194.087 40.2686C192.219 40.5757 190.312 40.5757 188.444 40.2686C188.444 40.0851 188.331 39.8453 188.274 39.5772C188.207 39.1858 188.179 38.7889 188.19 38.392V37.7006C188.193 37.4212 188.222 37.1426 188.274 36.8682C187.387 38.0166 186.279 38.976 185.015 39.6901C183.602 40.4607 182.01 40.8451 180.401 40.8047C179.627 40.8515 178.851 40.7405 178.121 40.4786C177.391 40.2166 176.722 39.8092 176.154 39.2809C175.176 38.1764 174.67 36.733 174.743 35.2597C174.745 33.4595 175.08 31.6751 175.731 29.9968C176.394 28.3097 177.398 26.7774 178.68 25.4959C180.05 24.1409 181.676 23.0714 183.463 22.3495C185.622 21.5185 187.922 21.116 190.236 21.1643C191.438 21.1638 192.64 21.2392 193.833 21.39C194.945 21.5329 196.047 21.7402 197.135 22.0109L195.005 32.2261Z" fill="#35A96A"/>
    <path d="M212.613 35.9228C212.96 36.3986 213.227 36.9275 213.404 37.489C213.636 38.2616 213.741 39.067 213.714 39.8735C212.746 40.2236 211.743 40.4695 210.723 40.6072C209.572 40.754 208.412 40.8247 207.252 40.8188C203.903 40.8188 201.458 40.1509 199.915 38.8152C199.136 38.1269 198.521 37.2728 198.116 36.3156C197.711 35.3585 197.525 34.3227 197.573 33.2843C197.581 31.8093 197.868 30.3491 198.419 28.9809C199.002 27.5329 199.865 26.2143 200.959 25.1008C202.131 23.9025 203.526 22.944 205.065 22.2789C206.846 21.5128 208.77 21.1375 210.709 21.1784C211.68 21.1815 212.651 21.2427 213.615 21.3618C214.522 21.4864 215.418 21.6798 216.296 21.9403C216.247 22.6264 216.114 23.3039 215.901 23.9579C215.65 24.696 215.278 25.3874 214.8 26.0038C214.171 25.7968 213.531 25.6272 212.882 25.4959C212.192 25.3726 211.493 25.3112 210.793 25.3125C209.759 25.2941 208.735 25.5163 207.802 25.9615C206.984 26.3622 206.258 26.9292 205.672 27.6264C205.1 28.3278 204.669 29.1326 204.402 29.9968C204.117 30.9101 203.974 31.8619 203.978 32.8187C203.936 33.3715 204.027 33.9264 204.243 34.437C204.459 34.9476 204.794 35.399 205.22 35.7535C206.123 36.4123 207.222 36.7456 208.338 36.6988C208.976 36.702 209.613 36.6549 210.243 36.5577C211.044 36.4143 211.832 36.2066 212.599 35.9369" fill="#35A96A"/>
    <path d="M222.645 18.4834C222.616 17.6742 222.682 16.8644 222.843 16.0706C223.03 15.2452 223.29 14.4378 223.619 13.6579C224.168 13.5532 224.725 13.4872 225.283 13.4604C225.876 13.4604 226.398 13.4604 226.864 13.4604C227.329 13.4604 227.851 13.4604 228.43 13.4604C228.965 13.487 229.498 13.5531 230.024 13.6579C230.028 14.4737 229.942 15.2874 229.77 16.0848C229.575 16.9053 229.311 17.7077 228.98 18.4834C228.444 18.4834 227.894 18.5962 227.329 18.6245C226.765 18.6527 226.243 18.6245 225.763 18.6245C225.283 18.6245 224.818 18.6245 224.225 18.6245C223.633 18.6245 223.111 18.5539 222.645 18.4834ZM221.375 25.5381H218.553C218.56 25.4677 218.56 25.3969 218.553 25.3265C218.546 25.242 218.546 25.157 218.553 25.0725C218.552 24.4774 218.628 23.8846 218.779 23.3088C218.937 22.7217 219.159 22.1538 219.442 21.6157H228.317L224.38 40.3813C223.334 40.5302 222.277 40.6057 221.22 40.6071C220.237 40.6038 219.257 40.5283 218.285 40.3813L221.375 25.5381Z" fill="#35A96A"/>
    <path d="M232.565 20.9386C232.854 19.833 233.08 18.7118 233.242 17.5805C233.366 16.782 233.432 15.9757 233.439 15.1678C233.439 14.8997 233.439 14.6739 233.439 14.5046C233.439 14.3353 233.439 14.1237 233.439 13.8979C233.933 13.8274 234.512 13.7709 235.147 13.7427C235.782 13.7145 236.346 13.7427 236.826 13.7427C237.77 13.7491 238.713 13.8198 239.648 13.9543C239.811 14.4063 239.888 14.885 239.873 15.3653C239.861 15.9479 239.8 16.5284 239.69 17.1008C239.577 17.7639 239.436 18.5117 239.253 19.2454L235.866 33.8205C235.792 34.1543 235.749 34.4945 235.739 34.8364C235.725 35.154 235.793 35.4699 235.937 35.7535C236.06 35.9638 236.235 36.1388 236.445 36.2615C236.662 36.3847 236.902 36.4615 237.15 36.4872C237.413 36.5088 237.677 36.5088 237.94 36.4872H238.589C238.89 36.461 239.187 36.409 239.478 36.332C239.632 36.7936 239.755 37.265 239.845 37.743C239.943 38.2072 239.995 38.6797 240 39.1539C240 39.3515 240 39.5349 240 39.7042C240 39.8735 240 40.0569 239.93 40.2404C239.37 40.4185 238.793 40.5368 238.209 40.5931C237.436 40.6819 236.658 40.7243 235.88 40.7201C234.227 40.809 232.586 40.3852 231.182 39.5067C230.599 39.0636 230.136 38.4816 229.835 37.8137C229.534 37.1459 229.406 36.4134 229.461 35.683C229.466 35.3236 229.499 34.9651 229.559 34.6107C229.616 34.225 229.686 33.8299 229.771 33.4255L232.565 20.9386Z" fill="#35A96A"/>
    </svg>
