<svg width="660" height="103" viewBox="0 0 660 103" fill="none" xmlns="http://www.w3.org/2000/svg">
    <rect y="20" width="660" height="7" rx="3.5" fill="#E4E4E4" />
    <rect y="20" width="103" height="7" rx="3.5" fill="#3D90E0" />
    <g filter="url(#filter0_i)">
        <circle cx="99.5" cy="23.5" r="20.5" fill="#E4E4E4" />
    </g>
    <circle cx="99.5" cy="23.5" r="20.5" stroke="#3D90E0" stroke-width="6" />
    <path d="M77.1152 75V60.7812H81.1289C82.3659 60.7812 83.4596 61.0547 84.4102 61.6016C85.3607 62.1484 86.0931 62.9264 86.6074 63.9355C87.1283 64.9447 87.3919 66.1035 87.3984 67.4121V68.3203C87.3984 69.6615 87.138 70.8366 86.6172 71.8457C86.1029 72.8548 85.3639 73.6296 84.4004 74.1699C83.4434 74.7103 82.3268 74.987 81.0508 75H77.1152ZM78.9902 62.3242V73.4668H80.9629C82.4082 73.4668 83.5312 73.0176 84.332 72.1191C85.1393 71.2207 85.543 69.9414 85.543 68.2812V67.4512C85.543 65.8366 85.1621 64.5833 84.4004 63.6914C83.6452 62.793 82.571 62.3372 81.1777 62.3242H78.9902ZM96.4805 75C96.3763 74.7917 96.2917 74.4206 96.2266 73.8867C95.3867 74.7591 94.3841 75.1953 93.2188 75.1953C92.1771 75.1953 91.321 74.9023 90.6504 74.3164C89.9863 73.724 89.6543 72.9753 89.6543 72.0703C89.6543 70.9701 90.071 70.1172 90.9043 69.5117C91.7441 68.8997 92.9225 68.5938 94.4395 68.5938H96.1973V67.7637C96.1973 67.1322 96.0085 66.6309 95.6309 66.2598C95.2533 65.8822 94.6966 65.6934 93.9609 65.6934C93.3164 65.6934 92.776 65.8561 92.3398 66.1816C91.9036 66.5072 91.6855 66.901 91.6855 67.3633H89.8691C89.8691 66.8359 90.0547 66.3281 90.4258 65.8398C90.8034 65.3451 91.3112 64.9544 91.9492 64.668C92.5938 64.3815 93.3001 64.2383 94.0684 64.2383C95.2858 64.2383 96.2396 64.5443 96.9297 65.1562C97.6198 65.7617 97.9779 66.5983 98.0039 67.666V72.5293C98.0039 73.4993 98.1276 74.2708 98.375 74.8438V75H96.4805ZM93.4824 73.623C94.0488 73.623 94.5859 73.4766 95.0938 73.1836C95.6016 72.8906 95.9694 72.5098 96.1973 72.041V69.873H94.7812C92.5677 69.873 91.4609 70.5208 91.4609 71.8164C91.4609 72.3828 91.6497 72.8255 92.0273 73.1445C92.4049 73.4635 92.89 73.623 93.4824 73.623ZM103.287 61.875V64.4336H105.26V65.8301H103.287V72.3828C103.287 72.806 103.375 73.125 103.551 73.3398C103.727 73.5482 104.026 73.6523 104.449 73.6523C104.658 73.6523 104.944 73.6133 105.309 73.5352V75C104.833 75.1302 104.371 75.1953 103.922 75.1953C103.115 75.1953 102.506 74.9512 102.096 74.4629C101.686 73.9746 101.48 73.2812 101.48 72.3828V65.8301H99.5566V64.4336H101.48V61.875H103.287ZM106.705 69.6191C106.705 68.584 106.907 67.653 107.311 66.8262C107.721 65.9993 108.287 65.3613 109.01 64.9121C109.739 64.4629 110.569 64.2383 111.5 64.2383C112.939 64.2383 114.101 64.7363 114.986 65.7324C115.878 66.7285 116.324 68.0534 116.324 69.707V69.834C116.324 70.8626 116.126 71.7871 115.729 72.6074C115.338 73.4212 114.775 74.056 114.039 74.5117C113.31 74.9674 112.47 75.1953 111.52 75.1953C110.087 75.1953 108.925 74.6973 108.033 73.7012C107.148 72.7051 106.705 71.3867 106.705 69.7461V69.6191ZM108.521 69.834C108.521 71.0059 108.792 71.9466 109.332 72.6562C109.879 73.3659 110.608 73.7207 111.52 73.7207C112.438 73.7207 113.167 73.3626 113.707 72.6465C114.247 71.9238 114.518 70.9147 114.518 69.6191C114.518 68.4603 114.241 67.5228 113.688 66.8066C113.141 66.084 112.411 65.7227 111.5 65.7227C110.608 65.7227 109.889 66.0775 109.342 66.7871C108.795 67.4967 108.521 68.5124 108.521 69.834ZM124.742 72.1973C124.742 71.709 124.557 71.3314 124.186 71.0645C123.821 70.791 123.18 70.5566 122.262 70.3613C121.35 70.166 120.624 69.9316 120.084 69.6582C119.55 69.3848 119.153 69.0592 118.893 68.6816C118.639 68.304 118.512 67.8548 118.512 67.334C118.512 66.4681 118.876 65.7357 119.605 65.1367C120.341 64.5378 121.279 64.2383 122.418 64.2383C123.616 64.2383 124.586 64.5475 125.328 65.166C126.077 65.7845 126.451 66.5755 126.451 67.5391H124.635C124.635 67.0443 124.423 66.6178 124 66.2598C123.583 65.9017 123.056 65.7227 122.418 65.7227C121.76 65.7227 121.246 65.8659 120.875 66.1523C120.504 66.4388 120.318 66.8132 120.318 67.2754C120.318 67.7116 120.491 68.0404 120.836 68.2617C121.181 68.4831 121.803 68.6947 122.701 68.8965C123.606 69.0983 124.339 69.3392 124.898 69.6191C125.458 69.8991 125.872 70.2376 126.139 70.6348C126.412 71.0254 126.549 71.5039 126.549 72.0703C126.549 73.0143 126.171 73.7728 125.416 74.3457C124.661 74.9121 123.681 75.1953 122.477 75.1953C121.63 75.1953 120.882 75.0456 120.23 74.7461C119.579 74.4466 119.068 74.0299 118.697 73.4961C118.333 72.9557 118.15 72.373 118.15 71.748H119.957C119.99 72.3535 120.23 72.8353 120.68 73.1934C121.135 73.5449 121.734 73.7207 122.477 73.7207C123.16 73.7207 123.707 73.584 124.117 73.3105C124.534 73.0306 124.742 72.6595 124.742 72.1973ZM59.1758 92.6289C59.1758 90.9818 59.5566 89.6732 60.3184 88.7031C61.0801 87.7266 62.0892 87.2383 63.3457 87.2383C64.6348 87.2383 65.6406 87.694 66.3633 88.6055L66.4512 87.4336H68.1016V97.7461C68.1016 99.1133 67.6947 100.191 66.8809 100.979C66.0736 101.766 64.9863 102.16 63.6191 102.16C62.8574 102.16 62.112 101.997 61.3828 101.672C60.6536 101.346 60.097 100.9 59.7129 100.334L60.6504 99.25C61.4251 100.207 62.3724 100.686 63.4922 100.686C64.3711 100.686 65.0547 100.438 65.543 99.9434C66.0378 99.4486 66.2852 98.752 66.2852 97.8535V96.9453C65.5625 97.7786 64.5762 98.1953 63.3262 98.1953C62.0892 98.1953 61.0866 97.6973 60.3184 96.7012C59.5566 95.7051 59.1758 94.3477 59.1758 92.6289ZM60.9922 92.834C60.9922 94.0254 61.2363 94.9629 61.7246 95.6465C62.2129 96.3236 62.8965 96.6621 63.7754 96.6621C64.9147 96.6621 65.7513 96.1445 66.2852 95.1094V90.2852C65.7318 89.276 64.9017 88.7715 63.7949 88.7715C62.916 88.7715 62.2292 89.1133 61.7344 89.7969C61.2396 90.4805 60.9922 91.4928 60.9922 92.834ZM75.2207 98.1953C73.7884 98.1953 72.623 97.7266 71.7246 96.7891C70.8262 95.8451 70.377 94.5853 70.377 93.0098V92.6777C70.377 91.6296 70.5755 90.6953 70.9727 89.875C71.3763 89.0482 71.9362 88.4036 72.6523 87.9414C73.375 87.4727 74.1562 87.2383 74.9961 87.2383C76.3698 87.2383 77.4375 87.6908 78.1992 88.5957C78.9609 89.5007 79.3418 90.7962 79.3418 92.4824V93.2344H72.1836C72.2096 94.276 72.5124 95.1191 73.0918 95.7637C73.6777 96.4017 74.4199 96.7207 75.3184 96.7207C75.9564 96.7207 76.4967 96.5905 76.9395 96.3301C77.3822 96.0697 77.7695 95.7246 78.1016 95.2949L79.2051 96.1543C78.3197 97.515 76.9915 98.1953 75.2207 98.1953ZM74.9961 88.7227C74.2669 88.7227 73.6549 88.9896 73.1602 89.5234C72.6654 90.0508 72.3594 90.793 72.2422 91.75H77.5352V91.6133C77.4831 90.6953 77.2357 89.9857 76.793 89.4844C76.3503 88.9766 75.7513 88.7227 74.9961 88.7227ZM83.1504 87.4336L83.209 88.7617C84.0163 87.7461 85.071 87.2383 86.373 87.2383C88.6061 87.2383 89.7324 88.498 89.752 91.0176V98H87.9453V91.0078C87.9388 90.2461 87.763 89.6829 87.418 89.3184C87.0794 88.9538 86.5488 88.7715 85.8262 88.7715C85.2402 88.7715 84.7259 88.9277 84.2832 89.2402C83.8405 89.5527 83.4954 89.9629 83.248 90.4707V98H81.4414V87.4336H83.1504ZM96.8613 98.1953C95.429 98.1953 94.2637 97.7266 93.3652 96.7891C92.4668 95.8451 92.0176 94.5853 92.0176 93.0098V92.6777C92.0176 91.6296 92.2161 90.6953 92.6133 89.875C93.0169 89.0482 93.5768 88.4036 94.293 87.9414C95.0156 87.4727 95.7969 87.2383 96.6367 87.2383C98.0104 87.2383 99.0781 87.6908 99.8398 88.5957C100.602 89.5007 100.982 90.7962 100.982 92.4824V93.2344H93.8242C93.8503 94.276 94.153 95.1191 94.7324 95.7637C95.3184 96.4017 96.0605 96.7207 96.959 96.7207C97.597 96.7207 98.1374 96.5905 98.5801 96.3301C99.0228 96.0697 99.4102 95.7246 99.7422 95.2949L100.846 96.1543C99.9603 97.515 98.6322 98.1953 96.8613 98.1953ZM96.6367 88.7227C95.9076 88.7227 95.2956 88.9896 94.8008 89.5234C94.306 90.0508 94 90.793 93.8828 91.75H99.1758V91.6133C99.1237 90.6953 98.8763 89.9857 98.4336 89.4844C97.9909 88.9766 97.3919 88.7227 96.6367 88.7227ZM108.189 89.0547C107.916 89.0091 107.62 88.9863 107.301 88.9863C106.116 88.9863 105.312 89.4909 104.889 90.5V98H103.082V87.4336H104.84L104.869 88.6543C105.462 87.7103 106.301 87.2383 107.389 87.2383C107.74 87.2383 108.007 87.2839 108.189 87.375V89.0547ZM115.992 98C115.888 97.7917 115.803 97.4206 115.738 96.8867C114.898 97.7591 113.896 98.1953 112.73 98.1953C111.689 98.1953 110.833 97.9023 110.162 97.3164C109.498 96.724 109.166 95.9753 109.166 95.0703C109.166 93.9701 109.583 93.1172 110.416 92.5117C111.256 91.8997 112.434 91.5938 113.951 91.5938H115.709V90.7637C115.709 90.1322 115.52 89.6309 115.143 89.2598C114.765 88.8822 114.208 88.6934 113.473 88.6934C112.828 88.6934 112.288 88.8561 111.852 89.1816C111.415 89.5072 111.197 89.901 111.197 90.3633H109.381C109.381 89.8359 109.566 89.3281 109.938 88.8398C110.315 88.3451 110.823 87.9544 111.461 87.668C112.105 87.3815 112.812 87.2383 113.58 87.2383C114.798 87.2383 115.751 87.5443 116.441 88.1562C117.132 88.7617 117.49 89.5983 117.516 90.666V95.5293C117.516 96.4993 117.639 97.2708 117.887 97.8438V98H115.992ZM112.994 96.623C113.561 96.623 114.098 96.4766 114.605 96.1836C115.113 95.8906 115.481 95.5098 115.709 95.041V92.873H114.293C112.079 92.873 110.973 93.5208 110.973 94.8164C110.973 95.3828 111.161 95.8255 111.539 96.1445C111.917 96.4635 112.402 96.623 112.994 96.623ZM122.311 98H120.504V83H122.311V98ZM129.596 98.1953C128.163 98.1953 126.998 97.7266 126.1 96.7891C125.201 95.8451 124.752 94.5853 124.752 93.0098V92.6777C124.752 91.6296 124.951 90.6953 125.348 89.875C125.751 89.0482 126.311 88.4036 127.027 87.9414C127.75 87.4727 128.531 87.2383 129.371 87.2383C130.745 87.2383 131.812 87.6908 132.574 88.5957C133.336 89.5007 133.717 90.7962 133.717 92.4824V93.2344H126.559C126.585 94.276 126.887 95.1191 127.467 95.7637C128.053 96.4017 128.795 96.7207 129.693 96.7207C130.331 96.7207 130.872 96.5905 131.314 96.3301C131.757 96.0697 132.145 95.7246 132.477 95.2949L133.58 96.1543C132.695 97.515 131.367 98.1953 129.596 98.1953ZM129.371 88.7227C128.642 88.7227 128.03 88.9896 127.535 89.5234C127.04 90.0508 126.734 90.793 126.617 91.75H131.91V91.6133C131.858 90.6953 131.611 89.9857 131.168 89.4844C130.725 88.9766 130.126 88.7227 129.371 88.7227ZM141.969 95.1973C141.969 94.709 141.783 94.3314 141.412 94.0645C141.048 93.791 140.406 93.5566 139.488 93.3613C138.577 93.166 137.851 92.9316 137.311 92.6582C136.777 92.3848 136.38 92.0592 136.119 91.6816C135.865 91.304 135.738 90.8548 135.738 90.334C135.738 89.4681 136.103 88.7357 136.832 88.1367C137.568 87.5378 138.505 87.2383 139.645 87.2383C140.842 87.2383 141.812 87.5475 142.555 88.166C143.303 88.7845 143.678 89.5755 143.678 90.5391H141.861C141.861 90.0443 141.65 89.6178 141.227 89.2598C140.81 88.9017 140.283 88.7227 139.645 88.7227C138.987 88.7227 138.473 88.8659 138.102 89.1523C137.73 89.4388 137.545 89.8132 137.545 90.2754C137.545 90.7116 137.717 91.0404 138.062 91.2617C138.408 91.4831 139.029 91.6947 139.928 91.8965C140.833 92.0983 141.565 92.3392 142.125 92.6191C142.685 92.8991 143.098 93.2376 143.365 93.6348C143.639 94.0254 143.775 94.5039 143.775 95.0703C143.775 96.0143 143.398 96.7728 142.643 97.3457C141.887 97.9121 140.908 98.1953 139.703 98.1953C138.857 98.1953 138.108 98.0456 137.457 97.7461C136.806 97.4466 136.295 97.0299 135.924 96.4961C135.559 95.9557 135.377 95.373 135.377 94.748H137.184C137.216 95.3535 137.457 95.8353 137.906 96.1934C138.362 96.5449 138.961 96.7207 139.703 96.7207C140.387 96.7207 140.934 96.584 141.344 96.3105C141.76 96.0306 141.969 95.6595 141.969 95.1973Z" fill="#848484" />
    <g filter="url(#filter1_i)">
        <circle cx="341.5" cy="23.5" r="20.5" fill="#E4E4E4" />
    </g>
    <path d="M296.127 73.4668H302.865V75H294.242V60.7812H296.127V73.4668ZM304.242 69.6191C304.242 68.584 304.444 67.653 304.848 66.8262C305.258 65.9993 305.824 65.3613 306.547 64.9121C307.276 64.4629 308.106 64.2383 309.037 64.2383C310.476 64.2383 311.638 64.7363 312.523 65.7324C313.415 66.7285 313.861 68.0534 313.861 69.707V69.834C313.861 70.8626 313.663 71.7871 313.266 72.6074C312.875 73.4212 312.312 74.056 311.576 74.5117C310.847 74.9674 310.007 75.1953 309.057 75.1953C307.624 75.1953 306.462 74.6973 305.57 73.7012C304.685 72.7051 304.242 71.3867 304.242 69.7461V69.6191ZM306.059 69.834C306.059 71.0059 306.329 71.9466 306.869 72.6562C307.416 73.3659 308.145 73.7207 309.057 73.7207C309.975 73.7207 310.704 73.3626 311.244 72.6465C311.785 71.9238 312.055 70.9147 312.055 69.6191C312.055 68.4603 311.778 67.5228 311.225 66.8066C310.678 66.084 309.949 65.7227 309.037 65.7227C308.145 65.7227 307.426 66.0775 306.879 66.7871C306.332 67.4967 306.059 68.5124 306.059 69.834ZM320.365 73.7207C321.01 73.7207 321.573 73.5254 322.055 73.1348C322.536 72.7441 322.803 72.2559 322.855 71.6699H324.564C324.532 72.2754 324.324 72.8516 323.939 73.3984C323.555 73.9453 323.041 74.3815 322.396 74.707C321.758 75.0326 321.081 75.1953 320.365 75.1953C318.926 75.1953 317.781 74.7168 316.928 73.7598C316.081 72.7962 315.658 71.4811 315.658 69.8145V69.5117C315.658 68.4831 315.847 67.5684 316.225 66.7676C316.602 65.9668 317.143 65.3451 317.846 64.9023C318.555 64.4596 319.392 64.2383 320.355 64.2383C321.54 64.2383 322.523 64.5931 323.305 65.3027C324.092 66.0124 324.512 66.9336 324.564 68.0664H322.855C322.803 67.3828 322.543 66.8229 322.074 66.3867C321.612 65.944 321.039 65.7227 320.355 65.7227C319.438 65.7227 318.725 66.0547 318.217 66.7188C317.715 67.3763 317.465 68.3301 317.465 69.5801V69.9219C317.465 71.1393 317.715 72.0768 318.217 72.7344C318.718 73.3919 319.434 73.7207 320.365 73.7207ZM333.119 75C333.015 74.7917 332.93 74.4206 332.865 73.8867C332.025 74.7591 331.023 75.1953 329.857 75.1953C328.816 75.1953 327.96 74.9023 327.289 74.3164C326.625 73.724 326.293 72.9753 326.293 72.0703C326.293 70.9701 326.71 70.1172 327.543 69.5117C328.383 68.8997 329.561 68.5938 331.078 68.5938H332.836V67.7637C332.836 67.1322 332.647 66.6309 332.27 66.2598C331.892 65.8822 331.335 65.6934 330.6 65.6934C329.955 65.6934 329.415 65.8561 328.979 66.1816C328.542 66.5072 328.324 66.901 328.324 67.3633H326.508C326.508 66.8359 326.693 66.3281 327.064 65.8398C327.442 65.3451 327.95 64.9544 328.588 64.668C329.232 64.3815 329.939 64.2383 330.707 64.2383C331.924 64.2383 332.878 64.5443 333.568 65.1562C334.258 65.7617 334.617 66.5983 334.643 67.666V72.5293C334.643 73.4993 334.766 74.2708 335.014 74.8438V75H333.119ZM330.121 73.623C330.688 73.623 331.225 73.4766 331.732 73.1836C332.24 72.8906 332.608 72.5098 332.836 72.041V69.873H331.42C329.206 69.873 328.1 70.5208 328.1 71.8164C328.1 72.3828 328.288 72.8255 328.666 73.1445C329.044 73.4635 329.529 73.623 330.121 73.623ZM339.438 75H337.631V60H339.438V75ZM344.301 75H342.494V64.4336H344.301V75ZM342.348 61.6309C342.348 61.3379 342.436 61.0905 342.611 60.8887C342.794 60.6868 343.061 60.5859 343.412 60.5859C343.764 60.5859 344.031 60.6868 344.213 60.8887C344.395 61.0905 344.486 61.3379 344.486 61.6309C344.486 61.9238 344.395 62.168 344.213 62.3633C344.031 62.5586 343.764 62.6562 343.412 62.6562C343.061 62.6562 342.794 62.5586 342.611 62.3633C342.436 62.168 342.348 61.9238 342.348 61.6309ZM348.9 73.5254H355.082V75H346.693V73.6719L352.523 65.9277H346.781V64.4336H354.789V65.7129L348.9 73.5254ZM363.646 75C363.542 74.7917 363.458 74.4206 363.393 73.8867C362.553 74.7591 361.55 75.1953 360.385 75.1953C359.343 75.1953 358.487 74.9023 357.816 74.3164C357.152 73.724 356.82 72.9753 356.82 72.0703C356.82 70.9701 357.237 70.1172 358.07 69.5117C358.91 68.8997 360.089 68.5938 361.605 68.5938H363.363V67.7637C363.363 67.1322 363.174 66.6309 362.797 66.2598C362.419 65.8822 361.863 65.6934 361.127 65.6934C360.482 65.6934 359.942 65.8561 359.506 66.1816C359.07 66.5072 358.852 66.901 358.852 67.3633H357.035C357.035 66.8359 357.221 66.3281 357.592 65.8398C357.969 65.3451 358.477 64.9544 359.115 64.668C359.76 64.3815 360.466 64.2383 361.234 64.2383C362.452 64.2383 363.406 64.5443 364.096 65.1562C364.786 65.7617 365.144 66.5983 365.17 67.666V72.5293C365.17 73.4993 365.294 74.2708 365.541 74.8438V75H363.646ZM360.648 73.623C361.215 73.623 361.752 73.4766 362.26 73.1836C362.768 72.8906 363.135 72.5098 363.363 72.041V69.873H361.947C359.734 69.873 358.627 70.5208 358.627 71.8164C358.627 72.3828 358.816 72.8255 359.193 73.1445C359.571 73.4635 360.056 73.623 360.648 73.623ZM372.24 73.7207C372.885 73.7207 373.448 73.5254 373.93 73.1348C374.411 72.7441 374.678 72.2559 374.73 71.6699H376.439C376.407 72.2754 376.199 72.8516 375.814 73.3984C375.43 73.9453 374.916 74.3815 374.271 74.707C373.633 75.0326 372.956 75.1953 372.24 75.1953C370.801 75.1953 369.656 74.7168 368.803 73.7598C367.956 72.7962 367.533 71.4811 367.533 69.8145V69.5117C367.533 68.4831 367.722 67.5684 368.1 66.7676C368.477 65.9668 369.018 65.3451 369.721 64.9023C370.43 64.4596 371.267 64.2383 372.23 64.2383C373.415 64.2383 374.398 64.5931 375.18 65.3027C375.967 66.0124 376.387 66.9336 376.439 68.0664H374.73C374.678 67.3828 374.418 66.8229 373.949 66.3867C373.487 65.944 372.914 65.7227 372.23 65.7227C371.312 65.7227 370.6 66.0547 370.092 66.7188C369.59 67.3763 369.34 68.3301 369.34 69.5801V69.9219C369.34 71.1393 369.59 72.0768 370.092 72.7344C370.593 73.3919 371.309 73.7207 372.24 73.7207ZM380.434 75H378.627V64.4336H380.434V75ZM378.48 61.6309C378.48 61.3379 378.568 61.0905 378.744 60.8887C378.926 60.6868 379.193 60.5859 379.545 60.5859C379.896 60.5859 380.163 60.6868 380.346 60.8887C380.528 61.0905 380.619 61.3379 380.619 61.6309C380.619 61.9238 380.528 62.168 380.346 62.3633C380.163 62.5586 379.896 62.6562 379.545 62.6562C379.193 62.6562 378.926 62.5586 378.744 62.3633C378.568 62.168 378.48 61.9238 378.48 61.6309ZM382.855 69.6191C382.855 68.584 383.057 67.653 383.461 66.8262C383.871 65.9993 384.438 65.3613 385.16 64.9121C385.889 64.4629 386.719 64.2383 387.65 64.2383C389.089 64.2383 390.251 64.7363 391.137 65.7324C392.029 66.7285 392.475 68.0534 392.475 69.707V69.834C392.475 70.8626 392.276 71.7871 391.879 72.6074C391.488 73.4212 390.925 74.056 390.189 74.5117C389.46 74.9674 388.62 75.1953 387.67 75.1953C386.238 75.1953 385.076 74.6973 384.184 73.7012C383.298 72.7051 382.855 71.3867 382.855 69.7461V69.6191ZM384.672 69.834C384.672 71.0059 384.942 71.9466 385.482 72.6562C386.029 73.3659 386.758 73.7207 387.67 73.7207C388.588 73.7207 389.317 73.3626 389.857 72.6465C390.398 71.9238 390.668 70.9147 390.668 69.6191C390.668 68.4603 390.391 67.5228 389.838 66.8066C389.291 66.084 388.562 65.7227 387.65 65.7227C386.758 65.7227 386.039 66.0775 385.492 66.7871C384.945 67.4967 384.672 68.5124 384.672 69.834ZM388.471 60H390.658L388.041 62.8711H386.586L388.471 60ZM396.449 64.4336L396.508 65.7617C397.315 64.7461 398.37 64.2383 399.672 64.2383C401.905 64.2383 403.031 65.498 403.051 68.0176V75H401.244V68.0078C401.238 67.2461 401.062 66.6829 400.717 66.3184C400.378 65.9538 399.848 65.7715 399.125 65.7715C398.539 65.7715 398.025 65.9277 397.582 66.2402C397.139 66.5527 396.794 66.9629 396.547 67.4707V75H394.74V64.4336H396.449Z" fill="#848484" />
    <g filter="url(#filter2_i)">
        <circle cx="574.5" cy="23.5" r="20.5" fill="#E4E4E4" />
    </g>
    <path d="M536.441 72.5098L540.504 60.7812H542.555L537.281 75H535.621L530.357 60.7812H532.398L536.441 72.5098ZM550.26 75C550.156 74.7917 550.071 74.4206 550.006 73.8867C549.166 74.7591 548.163 75.1953 546.998 75.1953C545.956 75.1953 545.1 74.9023 544.43 74.3164C543.766 73.724 543.434 72.9753 543.434 72.0703C543.434 70.9701 543.85 70.1172 544.684 69.5117C545.523 68.8997 546.702 68.5938 548.219 68.5938H549.977V67.7637C549.977 67.1322 549.788 66.6309 549.41 66.2598C549.033 65.8822 548.476 65.6934 547.74 65.6934C547.096 65.6934 546.555 65.8561 546.119 66.1816C545.683 66.5072 545.465 66.901 545.465 67.3633H543.648C543.648 66.8359 543.834 66.3281 544.205 65.8398C544.583 65.3451 545.09 64.9544 545.729 64.668C546.373 64.3815 547.079 64.2383 547.848 64.2383C549.065 64.2383 550.019 64.5443 550.709 65.1562C551.399 65.7617 551.757 66.5983 551.783 67.666V72.5293C551.783 73.4993 551.907 74.2708 552.154 74.8438V75H550.26ZM547.262 73.623C547.828 73.623 548.365 73.4766 548.873 73.1836C549.381 72.8906 549.749 72.5098 549.977 72.041V69.873H548.561C546.347 69.873 545.24 70.5208 545.24 71.8164C545.24 72.3828 545.429 72.8255 545.807 73.1445C546.184 73.4635 546.669 73.623 547.262 73.623ZM556.578 75H554.771V60H556.578V75ZM561.441 75H559.635V64.4336H561.441V75ZM559.488 61.6309C559.488 61.3379 559.576 61.0905 559.752 60.8887C559.934 60.6868 560.201 60.5859 560.553 60.5859C560.904 60.5859 561.171 60.6868 561.354 60.8887C561.536 61.0905 561.627 61.3379 561.627 61.6309C561.627 61.9238 561.536 62.168 561.354 62.3633C561.171 62.5586 560.904 62.6562 560.553 62.6562C560.201 62.6562 559.934 62.5586 559.752 62.3633C559.576 62.168 559.488 61.9238 559.488 61.6309ZM563.902 69.6289C563.902 68.0078 564.286 66.7057 565.055 65.7227C565.823 64.7331 566.829 64.2383 568.072 64.2383C569.309 64.2383 570.289 64.6615 571.012 65.5078V60H572.818V75H571.158L571.07 73.8672C570.348 74.7526 569.342 75.1953 568.053 75.1953C566.829 75.1953 565.829 74.694 565.055 73.6914C564.286 72.6888 563.902 71.3802 563.902 69.7656V69.6289ZM565.709 69.834C565.709 71.0319 565.956 71.9694 566.451 72.6465C566.946 73.3236 567.63 73.6621 568.502 73.6621C569.648 73.6621 570.484 73.1478 571.012 72.1191V67.2656C570.471 66.2695 569.641 65.7715 568.521 65.7715C567.636 65.7715 566.946 66.1133 566.451 66.7969C565.956 67.4805 565.709 68.4928 565.709 69.834ZM582.154 75C582.05 74.7917 581.965 74.4206 581.9 73.8867C581.061 74.7591 580.058 75.1953 578.893 75.1953C577.851 75.1953 576.995 74.9023 576.324 74.3164C575.66 73.724 575.328 72.9753 575.328 72.0703C575.328 70.9701 575.745 70.1172 576.578 69.5117C577.418 68.8997 578.596 68.5938 580.113 68.5938H581.871V67.7637C581.871 67.1322 581.682 66.6309 581.305 66.2598C580.927 65.8822 580.37 65.6934 579.635 65.6934C578.99 65.6934 578.45 65.8561 578.014 66.1816C577.577 66.5072 577.359 66.901 577.359 67.3633H575.543C575.543 66.8359 575.729 66.3281 576.1 65.8398C576.477 65.3451 576.985 64.9544 577.623 64.668C578.268 64.3815 578.974 64.2383 579.742 64.2383C580.96 64.2383 581.913 64.5443 582.604 65.1562C583.294 65.7617 583.652 66.5983 583.678 67.666V72.5293C583.678 73.4993 583.801 74.2708 584.049 74.8438V75H582.154ZM579.156 73.623C579.723 73.623 580.26 73.4766 580.768 73.1836C581.275 72.8906 581.643 72.5098 581.871 72.041V69.873H580.455C578.242 69.873 577.135 70.5208 577.135 71.8164C577.135 72.3828 577.324 72.8255 577.701 73.1445C578.079 73.4635 578.564 73.623 579.156 73.623ZM590.748 73.7207C591.393 73.7207 591.956 73.5254 592.438 73.1348C592.919 72.7441 593.186 72.2559 593.238 71.6699H594.947C594.915 72.2754 594.706 72.8516 594.322 73.3984C593.938 73.9453 593.424 74.3815 592.779 74.707C592.141 75.0326 591.464 75.1953 590.748 75.1953C589.309 75.1953 588.163 74.7168 587.311 73.7598C586.464 72.7962 586.041 71.4811 586.041 69.8145V69.5117C586.041 68.4831 586.23 67.5684 586.607 66.7676C586.985 65.9668 587.525 65.3451 588.229 64.9023C588.938 64.4596 589.775 64.2383 590.738 64.2383C591.923 64.2383 592.906 64.5931 593.688 65.3027C594.475 66.0124 594.895 66.9336 594.947 68.0664H593.238C593.186 67.3828 592.926 66.8229 592.457 66.3867C591.995 65.944 591.422 65.7227 590.738 65.7227C589.82 65.7227 589.107 66.0547 588.6 66.7188C588.098 67.3763 587.848 68.3301 587.848 69.5801V69.9219C587.848 71.1393 588.098 72.0768 588.6 72.7344C589.101 73.3919 589.817 73.7207 590.748 73.7207ZM598.941 75H597.135V64.4336H598.941V75ZM596.988 61.6309C596.988 61.3379 597.076 61.0905 597.252 60.8887C597.434 60.6868 597.701 60.5859 598.053 60.5859C598.404 60.5859 598.671 60.6868 598.854 60.8887C599.036 61.0905 599.127 61.3379 599.127 61.6309C599.127 61.9238 599.036 62.168 598.854 62.3633C598.671 62.5586 598.404 62.6562 598.053 62.6562C597.701 62.6562 597.434 62.5586 597.252 62.3633C597.076 62.168 596.988 61.9238 596.988 61.6309ZM601.363 69.6191C601.363 68.584 601.565 67.653 601.969 66.8262C602.379 65.9993 602.945 65.3613 603.668 64.9121C604.397 64.4629 605.227 64.2383 606.158 64.2383C607.597 64.2383 608.759 64.7363 609.645 65.7324C610.536 66.7285 610.982 68.0534 610.982 69.707V69.834C610.982 70.8626 610.784 71.7871 610.387 72.6074C609.996 73.4212 609.433 74.056 608.697 74.5117C607.968 74.9674 607.128 75.1953 606.178 75.1953C604.745 75.1953 603.583 74.6973 602.691 73.7012C601.806 72.7051 601.363 71.3867 601.363 69.7461V69.6191ZM603.18 69.834C603.18 71.0059 603.45 71.9466 603.99 72.6562C604.537 73.3659 605.266 73.7207 606.178 73.7207C607.096 73.7207 607.825 73.3626 608.365 72.6465C608.906 71.9238 609.176 70.9147 609.176 69.6191C609.176 68.4603 608.899 67.5228 608.346 66.8066C607.799 66.084 607.07 65.7227 606.158 65.7227C605.266 65.7227 604.547 66.0775 604 66.7871C603.453 67.4967 603.18 68.5124 603.18 69.834ZM606.979 60H609.166L606.549 62.8711H605.094L606.979 60ZM614.957 64.4336L615.016 65.7617C615.823 64.7461 616.878 64.2383 618.18 64.2383C620.413 64.2383 621.539 65.498 621.559 68.0176V75H619.752V68.0078C619.745 67.2461 619.57 66.6829 619.225 66.3184C618.886 65.9538 618.355 65.7715 617.633 65.7715C617.047 65.7715 616.533 65.9277 616.09 66.2402C615.647 66.5527 615.302 66.9629 615.055 67.4707V75H613.248V64.4336H614.957ZM539.225 92.834C539.225 94.4486 538.854 95.7474 538.111 96.7305C537.369 97.707 536.373 98.1953 535.123 98.1953C533.788 98.1953 532.757 97.7233 532.027 96.7793L531.939 98H530.279V83H532.086V88.5957C532.815 87.6908 533.821 87.2383 535.104 87.2383C536.386 87.2383 537.392 87.7233 538.121 88.6934C538.857 89.6634 539.225 90.9915 539.225 92.6777V92.834ZM537.418 92.6289C537.418 91.3984 537.18 90.4479 536.705 89.7773C536.23 89.1068 535.546 88.7715 534.654 88.7715C533.463 88.7715 532.607 89.3249 532.086 90.4316V95.002C532.639 96.1087 533.502 96.6621 534.674 96.6621C535.54 96.6621 536.214 96.3268 536.695 95.6562C537.177 94.9857 537.418 93.9766 537.418 92.6289ZM543.473 98H541.666V87.4336H543.473V98ZM541.52 84.6309C541.52 84.3379 541.607 84.0905 541.783 83.8887C541.965 83.6868 542.232 83.5859 542.584 83.5859C542.936 83.5859 543.202 83.6868 543.385 83.8887C543.567 84.0905 543.658 84.3379 543.658 84.6309C543.658 84.9238 543.567 85.168 543.385 85.3633C543.202 85.5586 542.936 85.6562 542.584 85.6562C542.232 85.6562 541.965 85.5586 541.783 85.3633C541.607 85.168 541.52 84.9238 541.52 84.6309ZM545.895 92.6191C545.895 91.584 546.096 90.653 546.5 89.8262C546.91 88.9993 547.477 88.3613 548.199 87.9121C548.928 87.4629 549.758 87.2383 550.689 87.2383C552.128 87.2383 553.29 87.7363 554.176 88.7324C555.068 89.7285 555.514 91.0534 555.514 92.707V92.834C555.514 93.8626 555.315 94.7871 554.918 95.6074C554.527 96.4212 553.964 97.056 553.229 97.5117C552.499 97.9674 551.66 98.1953 550.709 98.1953C549.277 98.1953 548.115 97.6973 547.223 96.7012C546.337 95.7051 545.895 94.3867 545.895 92.7461V92.6191ZM547.711 92.834C547.711 94.0059 547.981 94.9466 548.521 95.6562C549.068 96.3659 549.798 96.7207 550.709 96.7207C551.627 96.7207 552.356 96.3626 552.896 95.6465C553.437 94.9238 553.707 93.9147 553.707 92.6191C553.707 91.4603 553.43 90.5228 552.877 89.8066C552.33 89.084 551.601 88.7227 550.689 88.7227C549.798 88.7227 549.078 89.0775 548.531 89.7871C547.984 90.4967 547.711 91.5124 547.711 92.834ZM559.479 87.4336L559.527 88.6055C560.302 87.694 561.347 87.2383 562.662 87.2383C564.14 87.2383 565.146 87.8047 565.68 88.9375C566.031 88.4297 566.487 88.0195 567.047 87.707C567.613 87.3945 568.281 87.2383 569.049 87.2383C571.367 87.2383 572.545 88.4655 572.584 90.9199V98H570.777V91.0273C570.777 90.2721 570.605 89.709 570.26 89.3379C569.915 88.9603 569.335 88.7715 568.521 88.7715C567.851 88.7715 567.294 88.9733 566.852 89.377C566.409 89.7741 566.152 90.3112 566.08 90.9883V98H564.264V91.0762C564.264 89.5397 563.512 88.7715 562.008 88.7715C560.823 88.7715 560.012 89.276 559.576 90.2852V98H557.77V87.4336H559.479ZM579.703 98.1953C578.271 98.1953 577.105 97.7266 576.207 96.7891C575.309 95.8451 574.859 94.5853 574.859 93.0098V92.6777C574.859 91.6296 575.058 90.6953 575.455 89.875C575.859 89.0482 576.419 88.4036 577.135 87.9414C577.857 87.4727 578.639 87.2383 579.479 87.2383C580.852 87.2383 581.92 87.6908 582.682 88.5957C583.443 89.5007 583.824 90.7962 583.824 92.4824V93.2344H576.666C576.692 94.276 576.995 95.1191 577.574 95.7637C578.16 96.4017 578.902 96.7207 579.801 96.7207C580.439 96.7207 580.979 96.5905 581.422 96.3301C581.865 96.0697 582.252 95.7246 582.584 95.2949L583.688 96.1543C582.802 97.515 581.474 98.1953 579.703 98.1953ZM579.479 88.7227C578.749 88.7227 578.137 88.9896 577.643 89.5234C577.148 90.0508 576.842 90.793 576.725 91.75H582.018V91.6133C581.965 90.6953 581.718 89.9857 581.275 89.4844C580.833 88.9766 580.234 88.7227 579.479 88.7227ZM580.357 83H582.545L579.928 85.8711H578.473L580.357 83ZM588.375 84.875V87.4336H590.348V88.8301H588.375V95.3828C588.375 95.806 588.463 96.125 588.639 96.3398C588.814 96.5482 589.114 96.6523 589.537 96.6523C589.745 96.6523 590.032 96.6133 590.396 96.5352V98C589.921 98.1302 589.459 98.1953 589.01 98.1953C588.202 98.1953 587.594 97.9512 587.184 97.4629C586.773 96.9746 586.568 96.2812 586.568 95.3828V88.8301H584.645V87.4336H586.568V84.875H588.375ZM597.574 89.0547C597.301 89.0091 597.005 88.9863 596.686 88.9863C595.501 88.9863 594.697 89.4909 594.273 90.5V98H592.467V87.4336H594.225L594.254 88.6543C594.846 87.7103 595.686 87.2383 596.773 87.2383C597.125 87.2383 597.392 87.2839 597.574 87.375V89.0547ZM601.207 98H599.4V87.4336H601.207V98ZM599.254 84.6309C599.254 84.3379 599.342 84.0905 599.518 83.8887C599.7 83.6868 599.967 83.5859 600.318 83.5859C600.67 83.5859 600.937 83.6868 601.119 83.8887C601.301 84.0905 601.393 84.3379 601.393 84.6309C601.393 84.9238 601.301 85.168 601.119 85.3633C600.937 85.5586 600.67 85.6562 600.318 85.6562C599.967 85.6562 599.7 85.5586 599.518 85.3633C599.342 85.168 599.254 84.9238 599.254 84.6309ZM608.346 96.7207C608.99 96.7207 609.553 96.5254 610.035 96.1348C610.517 95.7441 610.784 95.2559 610.836 94.6699H612.545C612.512 95.2754 612.304 95.8516 611.92 96.3984C611.536 96.9453 611.021 97.3815 610.377 97.707C609.739 98.0326 609.062 98.1953 608.346 98.1953C606.907 98.1953 605.761 97.7168 604.908 96.7598C604.062 95.7962 603.639 94.4811 603.639 92.8145V92.5117C603.639 91.4831 603.827 90.5684 604.205 89.7676C604.583 88.9668 605.123 88.3451 605.826 87.9023C606.536 87.4596 607.372 87.2383 608.336 87.2383C609.521 87.2383 610.504 87.5931 611.285 88.3027C612.073 89.0124 612.493 89.9336 612.545 91.0664H610.836C610.784 90.3828 610.523 89.8229 610.055 89.3867C609.592 88.944 609.02 88.7227 608.336 88.7227C607.418 88.7227 606.705 89.0547 606.197 89.7188C605.696 90.3763 605.445 91.3301 605.445 92.5801V92.9219C605.445 94.1393 605.696 95.0768 606.197 95.7344C606.699 96.3919 607.415 96.7207 608.346 96.7207ZM621.1 98C620.995 97.7917 620.911 97.4206 620.846 96.8867C620.006 97.7591 619.003 98.1953 617.838 98.1953C616.796 98.1953 615.94 97.9023 615.27 97.3164C614.605 96.724 614.273 95.9753 614.273 95.0703C614.273 93.9701 614.69 93.1172 615.523 92.5117C616.363 91.8997 617.542 91.5938 619.059 91.5938H620.816V90.7637C620.816 90.1322 620.628 89.6309 620.25 89.2598C619.872 88.8822 619.316 88.6934 618.58 88.6934C617.936 88.6934 617.395 88.8561 616.959 89.1816C616.523 89.5072 616.305 89.901 616.305 90.3633H614.488C614.488 89.8359 614.674 89.3281 615.045 88.8398C615.423 88.3451 615.93 87.9544 616.568 87.668C617.213 87.3815 617.919 87.2383 618.688 87.2383C619.905 87.2383 620.859 87.5443 621.549 88.1562C622.239 88.7617 622.597 89.5983 622.623 90.666V95.5293C622.623 96.4993 622.747 97.2708 622.994 97.8438V98H621.1ZM618.102 96.623C618.668 96.623 619.205 96.4766 619.713 96.1836C620.221 95.8906 620.589 95.5098 620.816 95.041V92.873H619.4C617.187 92.873 616.08 93.5208 616.08 94.8164C616.08 95.3828 616.269 95.8255 616.646 96.1445C617.024 96.4635 617.509 96.623 618.102 96.623Z" fill="#848484" />
    <defs>
        <filter id="filter0_i" x="76" y="0" width="47" height="47" filterUnits="userSpaceOnUse" color-interpolation-filters="sRGB">
            <feFlood flood-opacity="0" result="BackgroundImageFix" />
            <feBlend mode="normal" in="SourceGraphic" in2="BackgroundImageFix" result="shape" />
            <feColorMatrix in="SourceAlpha" type="matrix" values="0 0 0 0 0 0 0 0 0 0 0 0 0 0 0 0 0 0 127 0" result="hardAlpha" />
            <feOffset />
            <feGaussianBlur stdDeviation="4.5" />
            <feComposite in2="hardAlpha" operator="arithmetic" k2="-1" k3="1" />
            <feColorMatrix type="matrix" values="0 0 0 0 0 0 0 0 0 0 0 0 0 0 0 0 0 0 0.25 0" />
            <feBlend mode="normal" in2="shape" result="effect1_innerShadow" />
        </filter>
        <filter id="filter1_i" x="321" y="3" width="41" height="41" filterUnits="userSpaceOnUse" color-interpolation-filters="sRGB">
            <feFlood flood-opacity="0" result="BackgroundImageFix" />
            <feBlend mode="normal" in="SourceGraphic" in2="BackgroundImageFix" result="shape" />
            <feColorMatrix in="SourceAlpha" type="matrix" values="0 0 0 0 0 0 0 0 0 0 0 0 0 0 0 0 0 0 127 0" result="hardAlpha" />
            <feOffset />
            <feGaussianBlur stdDeviation="4.5" />
            <feComposite in2="hardAlpha" operator="arithmetic" k2="-1" k3="1" />
            <feColorMatrix type="matrix" values="0 0 0 0 0 0 0 0 0 0 0 0 0 0 0 0 0 0 0.25 0" />
            <feBlend mode="normal" in2="shape" result="effect1_innerShadow" />
        </filter>
        <filter id="filter2_i" x="554" y="3" width="41" height="41" filterUnits="userSpaceOnUse" color-interpolation-filters="sRGB">
            <feFlood flood-opacity="0" result="BackgroundImageFix" />
            <feBlend mode="normal" in="SourceGraphic" in2="BackgroundImageFix" result="shape" />
            <feColorMatrix in="SourceAlpha" type="matrix" values="0 0 0 0 0 0 0 0 0 0 0 0 0 0 0 0 0 0 127 0" result="hardAlpha" />
            <feOffset />
            <feGaussianBlur stdDeviation="4.5" />
            <feComposite in2="hardAlpha" operator="arithmetic" k2="-1" k3="1" />
            <feColorMatrix type="matrix" values="0 0 0 0 0 0 0 0 0 0 0 0 0 0 0 0 0 0 0.25 0" />
            <feBlend mode="normal" in2="shape" result="effect1_innerShadow" />
        </filter>
    </defs>
</svg>
